<?xml version="1.0" encoding="utf-8"?>

<!DOCTYPE svg PUBLIC "-//W3C//DTD SVG 1.1//EN" "http://www.w3.org/Graphics/SVG/1.1/DTD/svg11.dtd">
<svg version="1.1" id="Layer_1" xmlns="http://www.w3.org/2000/svg" xmlns:xlink="http://www.w3.org/1999/xlink" x="0px" y="0px"
	 viewBox="0 0 1646 1655.354" enable-background="new 0 0 1646 1655.354" xml:space="preserve">
<g id="Man_Head_Silhouette">
</g>
<g>
	<path fill="#CBE1D9" d="M946.497,627.317c-0.085,1.349-0.129,2.695-0.134,4.04c0.683,1.109,1.399,2.203,2.148,3.277
		c0.872-1.607,1.809-3.183,2.808-4.726C949.679,629.105,948.072,628.242,946.497,627.317z"/>
	<path fill="#3FF13D" d="M939.974,664.143c0.029-0.014,0.061-0.028,0.089-0.041c0.002-0.034,0.004-0.065,0.007-0.098
		C940.037,664.051,940.006,664.096,939.974,664.143z"/>
	<path fill="#5B274D" d="M977.263,699.297c0.5-0.062,0.996-0.069,1.479-0.028c-5.433-9.972-14.937-17.667-26.845-20.416
		c-2.6-0.6-5.21-1.046-7.821-1.34c2.021,15.635,9.349,29.949,21.021,40.834c2.509,2.339,5.105,4.549,7.782,6.626
		c-3.633-2.932-5.94-7.085-6.511-11.729c-0.408-3.318,0.501-6.596,2.56-9.23C970.984,701.38,973.945,699.705,977.263,699.297z"/>
	<path fill="#211F97" d="M939.924,668.141c-1.198,0.596-2.379,1.227-3.534,1.889c-0.619,1.146-1.208,2.313-1.764,3.499
		c0.616-0.016,1.233-0.024,1.852-0.024c1.203,0,2.408,0.03,3.614,0.092c-0.055-0.809-0.097-1.62-0.125-2.434
		C939.932,670.152,939.918,669.146,939.924,668.141z"/>
	<path fill="#E9632F" d="M945.606,651.782c0.025-0.024,0.051-0.05,0.075-0.075c-0.009-0.032-0.021-0.07-0.029-0.102
		C945.637,651.664,945.621,651.724,945.606,651.782z"/>
	<path fill="#8BF101" d="M943.537,666.477c-0.047,1.512-0.044,3.034,0.009,4.561c0.033,0.949,0.085,1.893,0.156,2.833
		c3.005,0.306,6.009,0.802,9,1.493c2.317,0.535,4.551,1.242,6.691,2.106c-3.472-4.174-6.441-8.714-8.87-13.519
		C948.131,664.67,945.802,665.514,943.537,666.477z"/>
	<path fill="#578D87" d="M948.972,660.68c-0.746-1.682-1.429-3.393-2.045-5.127c-0.922,0.965-1.815,1.958-2.679,2.975
		c-0.196,1.318-0.354,2.646-0.473,3.98C945.475,661.834,947.206,661.225,948.972,660.68z"/>
	<path fill="#191709" d="M965.253,641.954c-2.377,1.211-4.664,2.548-6.854,4.001c11.599,10.678,26.412,16.933,42.351,17.769
		c3.423,0.18,6.836,0.204,10.224,0.074c-4.699,0.103-9.107-1.608-12.53-4.799c-5.046-4.706-5.323-12.641-0.617-17.688
		c0.341-0.366,0.714-0.69,1.112-0.973C988.367,636.191,976.141,636.406,965.253,641.954z"/>
	<path fill="#9BB563" d="M944.55,615.816c-0.81-0.086-1.62-0.187-2.431-0.301c-1.011-0.143-2.016-0.305-3.015-0.489
		c0.365,1.247,0.766,2.481,1.202,3.705c1.058,0.843,2.137,1.652,3.241,2.43C943.813,619.375,944.146,617.595,944.55,615.816z"/>
	<path fill="#4721C3" d="M943.069,625.173c-0.039-0.026-0.074-0.05-0.113-0.076c0.034,0.071,0.067,0.141,0.102,0.212
		C943.062,625.264,943.065,625.219,943.069,625.173z"/>
	<path fill="#9DA7E5" d="M931.482,681.487c-0.293,0.903-0.567,1.808-0.822,2.716c2.72,1.315,5.373,2.809,7.947,4.481
		c1.955,1.27,3.79,2.673,5.497,4.196c-1.802-5.03-3.039-10.28-3.677-15.678c-2.468-0.145-4.932-0.153-7.384-0.027
		C932.479,678.588,931.958,680.026,931.482,681.487z"/>
	<path fill="#1FAB27" d="M922.059,596.294c1.113,2.209,2.338,4.337,3.666,6.381c2.45-0.352,4.873-0.834,7.271-1.448
		c-0.219-3.002-0.251-6.037-0.091-9.092c0.122-2.328,0.419-4.619,0.886-6.859C930.337,589.349,926.41,593.043,922.059,596.294z"/>
	<path fill="#CF4D79" d="M887.432,671.976c3.921,1.375,7.738,3.095,11.396,5.151c0.323-0.004,0.646-0.006,0.968-0.006
		c3.915,0,7.808,0.323,11.645,0.962c3.968-1.5,8.046-2.638,12.188-3.403c3.135-2.689,6.513-5.117,10.102-7.244
		c2.07-3.702,4.458-7.195,7.134-10.445c0.685-4.188,1.739-8.287,3.147-12.257c-0.762-4.06-1.176-8.198-1.223-12.369
		c-2.185-3.667-4.025-7.507-5.507-11.476c-3.194-2.621-6.172-5.526-8.891-8.692c-4.03-1.406-7.907-3.164-11.595-5.252
		c-4.116,0.046-8.276-0.265-12.395-0.943c-3.965,1.504-8.039,2.645-12.179,3.415c-3.216,2.768-6.658,5.23-10.289,7.367
		c-2.039,3.623-4.4,7.081-7.065,10.325c-0.677,4.126-1.718,8.21-3.121,12.194c0.771,4.083,1.188,8.249,1.236,12.445
		c2.185,3.668,4.024,7.505,5.507,11.476C881.702,665.86,884.7,668.788,887.432,671.976z"/>
	<path fill="#2FE523" d="M948.33,749.168c-7.471-3.496-11.767-11.86-9.839-20.214c1.554-6.724,8.274-10.933,15.011-9.379
		c0.499,0.115,0.974,0.28,1.421,0.489c-0.124-0.817-0.272-1.633-0.445-2.448c-2.283-10.74-8.612-19.949-17.821-25.929
		c-2.237-1.453-4.537-2.765-6.892-3.934c-3.447,15.383-1.458,31.34,5.788,45.561c3.233,6.346,7.015,12.298,11.285,17.805
		C947.363,750.497,947.861,749.846,948.33,749.168z"/>
	<path fill="#C77D79" d="M1020.871,660.588c-2.656,1.862-5.771,2.961-9.07,3.175c3.363-0.153,6.702-0.458,10.01-0.91
		C1021.537,662.091,1021.224,661.334,1020.871,660.588z"/>
	<path fill="#C91D0F" d="M877.668,672.931c-1.49-0.311-2.996-0.575-4.518-0.789c-0.941-0.132-1.884-0.246-2.823-0.339
		c-0.815,2.894-1.821,5.767-3.026,8.605c-0.918,2.161-1.986,4.213-3.188,6.148c4.643-2.65,9.603-4.783,14.812-6.35
		C878.637,677.752,878.217,675.324,877.668,672.931z"/>
	<path fill="#79A701" d="M930.483,609.125c1.236,0.412,2.487,0.789,3.752,1.13c-0.364-1.792-0.66-3.603-0.886-5.427
		c-1.773,0.439-3.561,0.812-5.361,1.115C928.79,607.033,929.622,608.093,930.483,609.125z"/>
	<path fill="#616BA7" d="M1004.044,642.753c-0.315-0.091-0.646-0.137-0.983-0.137c-0.042,0-0.085,0-0.128,0.002
		c-0.953,0.033-1.837,0.436-2.487,1.134c-3.359,3.603-3.162,9.268,0.44,12.627c2.793,2.604,6.427,3.957,10.25,3.832
		c2.938-0.103,5.709-1.082,8.018-2.801C1015.373,651.108,1010.11,646.149,1004.044,642.753z"/>
	<path fill="#F59DF1" d="M988.335,593.248c3.82,0.201,7.476-1.097,10.313-3.653c2.185-1.967,3.679-4.498,4.343-7.299
		c-6.946-2.398-14.168-2.814-20.997-1.516c-0.338,0.151-0.653,0.355-0.937,0.61c-0.709,0.638-1.127,1.515-1.177,2.467
		c-0.125,2.384,0.686,4.673,2.282,6.446S985.952,593.123,988.335,593.248z"/>
	<path fill="#570D87" d="M976.531,582.211c-10.764,3.618-19.99,11.642-24.766,22.892c-1.047,2.467-1.936,4.958-2.673,7.47
		c15.751,0.721,31.112-4.007,43.859-13.611c2.692-2.029,5.268-4.159,7.722-6.379c-3.494,2.979-7.924,4.486-12.526,4.242
		c-3.339-0.175-6.409-1.64-8.646-4.124c-2.237-2.485-3.373-5.691-3.197-9.03C976.331,583.171,976.407,582.683,976.531,582.211z"/>
	<path fill="#0F534D" d="M924.063,606.618c-0.026-0.038-0.053-0.075-0.078-0.112c-0.047,0.005-0.09,0.01-0.137,0.015
		C923.919,606.553,923.99,606.585,924.063,606.618z"/>
	<path fill="#5BDD31" d="M950.878,637.826c0.941,1.196,1.927,2.366,2.954,3.508c0.635,0.706,1.281,1.395,1.941,2.07
		c2.498-1.698,5.118-3.249,7.853-4.642c2.104-1.072,4.265-1.969,6.467-2.69c-5.342-0.966-10.532-2.535-15.48-4.655
		C953.246,633.492,952,635.631,950.878,637.826z"/>
	<path fill="#D56B45" d="M891.706,677.494c0.019,0.026,0.038,0.054,0.056,0.08c0.033-0.004,0.064-0.007,0.098-0.011
		C891.809,677.54,891.757,677.517,891.706,677.494z"/>
	<path fill="#C38F7B" d="M880.653,669.969c-0.011-0.011-0.022-0.022-0.033-0.033c0.002,0.009,0.005,0.018,0.007,0.026
		C880.636,669.965,880.645,669.967,880.653,669.969z"/>
	<path fill="#AF23BB" d="M893.711,687.818c-1.119-2.219-2.351-4.358-3.686-6.411c-1.499,0.217-2.995,0.483-4.49,0.801
		c-0.928,0.197-1.849,0.413-2.763,0.646c0.221,3.012,0.254,6.057,0.093,9.122c-0.123,2.344-0.426,4.639-0.894,6.869
		C885.427,694.769,889.355,691.07,893.711,687.818z"/>
	<path fill="#C35F1D" d="M890.494,736.64c0.572-1.17,0.483-2.614-0.353-3.724c-1.754-2.328-4.435-3.554-7.146-3.554
		c-1.872,0-3.759,0.585-5.366,1.796c-3.049,2.298-5.021,5.646-5.553,9.427c-0.409,2.911,0.073,5.811,1.365,8.383
		C880.301,746.341,886.097,742.02,890.494,736.64z"/>
	<path fill="#A193B9" d="M887.76,678.139c-0.795-1.078-1.622-2.13-2.475-3.153c-1.235-0.411-2.487-0.788-3.752-1.13
		c0.363,1.782,0.657,3.581,0.883,5.396c0.787-0.195,1.578-0.376,2.376-0.546C885.78,678.495,886.769,678.307,887.76,678.139z"/>
	<path fill="#7B1B95" d="M909.254,756.544c-2.297-2.294-3.921-5.172-4.703-8.386c0.735,3.287,1.615,6.524,2.635,9.704
		C907.89,757.46,908.58,757.021,909.254,756.544z"/>
	<path fill="#030DCD" d="M903.925,759.421c-2.274-6.989-3.892-14.253-4.808-21.711c-0.289-2.355-0.46-4.696-0.517-7.02
		c-1.414,2.806-3.121,5.462-5.094,7.919c-0.438,0.768-1.019,1.453-1.724,2.021c-4.401,4.861-9.916,8.805-16.309,11.386
		C882.462,760.519,894.056,763.283,903.925,759.421z"/>
	<path fill="#234DDF" d="M923.896,736.875c0.038-0.368,0.02-0.745-0.06-1.117c-0.198-0.933-0.749-1.733-1.549-2.252
		c-1.499-0.974-3.185-1.439-4.852-1.439c-2.927,0-5.798,1.433-7.507,4.066c-2.08,3.202-2.788,7.023-1.994,10.758
		c0.611,2.875,2.057,5.435,4.15,7.41C917.635,749.483,921.604,743.438,923.896,736.875z"/>
	<path fill="#9701A3" d="M932.962,759.398c4.286-0.911,8.171-2.881,11.364-5.709c-4.51-5.744-8.526-12.002-11.965-18.75
		c-1.071-2.103-2.034-4.244-2.887-6.412c-0.37,3.118-1.065,6.194-2.078,9.176c-0.148,0.872-0.46,1.714-0.928,2.489
		c-2.474,6.072-6.308,11.667-11.431,16.277C920.45,759.672,926.772,760.712,932.962,759.398z"/>
	<path fill="#0DF987" d="M928.077,680.379c0.315-0.971,0.65-1.933,1.005-2.884c-1.291,0.143-2.578,0.323-3.857,0.541
		c-1.008,0.89-1.987,1.808-2.938,2.753c1.712,0.574,3.403,1.214,5.076,1.92C927.587,681.93,927.825,681.155,928.077,680.379z"/>
	<path fill="#EFC5EB" d="M872.037,610.237c-2.995-0.306-5.989-0.801-8.97-1.489c-2.317-0.535-4.552-1.243-6.691-2.105
		c3.475,4.177,6.444,8.717,8.874,13.527c2.368-0.708,4.688-1.542,6.949-2.497C872.28,615.193,872.226,612.71,872.037,610.237z"/>
	<path fill="#E1FB7D" d="M964.238,615.209c-5.268,0.901-10.657,1.207-16.08,0.901c-0.567,2.408-0.997,4.826-1.294,7.245
		c2.101,1.304,4.271,2.494,6.5,3.564c1.762-2.441,3.688-4.786,5.774-7.023C960.74,618.18,962.446,616.617,964.238,615.209z"/>
	<path fill="#ADCB2D" d="M948.629,648.95c1.353-1.195,2.754-2.341,4.202-3.436c-0.563-0.584-1.115-1.179-1.661-1.785
		c-0.683-0.759-1.349-1.53-1.995-2.312c-0.521,1.189-1.009,2.394-1.46,3.61C947.98,646.346,948.286,647.653,948.629,648.95z"/>
	<path fill="#ABBDC9" d="M968.311,657.714c-4.616-2.696-8.944-5.926-12.905-9.653c-1.974,1.469-3.858,3.039-5.648,4.702
		c0.773,2.36,1.675,4.676,2.699,6.938c2.904-0.737,5.885-1.299,8.936-1.674C963.719,657.741,966.03,657.638,968.311,657.714z"/>
	<path fill="#C5A937" d="M938.102,611.18c1.489,0.311,2.996,0.575,4.518,0.789c0.94,0.132,1.884,0.246,2.823,0.339
		c0.815-2.893,1.821-5.766,3.026-8.604c0.93-2.19,2.015-4.268,3.236-6.226c-4.715,2.695-9.707,4.834-14.863,6.392
		C937.129,606.336,937.55,608.777,938.102,611.18z"/>
	<path fill="#CBAB93" d="M915.717,682.616c-1.297-0.316-2.603-0.594-3.915-0.833c-1.24,0.489-2.468,1.016-3.684,1.58
		c1.433,1.135,2.827,2.33,4.182,3.586C913.383,685.463,914.523,684.017,915.717,682.616z"/>
	<path fill="#F167A5" d="M924.537,702.214c0.026-5.347,0.66-10.708,1.907-16.001c-2.26-0.975-4.562-1.822-6.896-2.541
		c-1.657,1.85-3.212,3.788-4.658,5.806c2.091,2.146,4.067,4.447,5.917,6.901C922.22,698.254,923.463,700.206,924.537,702.214z"/>
	<path fill="#4B8D77" d="M902.97,704.371c1.881-5.098,4.328-9.94,7.278-14.449c-1.806-1.706-3.696-3.304-5.664-4.791
		c-1.341,0.719-2.665,1.486-3.968,2.3c-0.807,0.504-1.6,1.022-2.381,1.555c1.235,2.74,2.311,5.588,3.212,8.537
		C902.144,699.798,902.647,702.085,902.97,704.371z"/>
	<path fill="#8D9D3B" d="M918.322,679.587c0.034,0.009,0.068,0.019,0.102,0.028c0.023-0.024,0.051-0.053,0.074-0.077
		C918.439,679.555,918.38,679.571,918.322,679.587z"/>
	<path fill="#AB134F" d="M904.803,680.89c0.025,0.018,0.053,0.037,0.079,0.056c0.03-0.015,0.058-0.028,0.088-0.043
		C904.913,680.898,904.858,680.894,904.803,680.89z"/>
	<path fill="#DDAF7D" d="M867.604,668.034c0.571-2.419,1.004-4.848,1.302-7.278c-2.104-1.307-4.273-2.496-6.506-3.566
		c-1.751,2.432-3.672,4.777-5.769,7.025c-1.622,1.739-3.353,3.321-5.169,4.742C856.813,668.037,862.229,667.735,867.604,668.034z"/>
	<path fill="#45DDC3" d="M822.91,674.813c11.342,0.282,22.768-4.103,31.102-13.041c1.818-1.95,3.501-3.981,5.046-6.078
		c-14.071-5.848-30.174-7.029-45.849-2.238c-3.224,0.986-6.366,2.104-9.431,3.351c4.301-1.602,8.975-1.5,13.215,0.301
		c6.352,2.697,9.326,10.058,6.63,16.411C823.427,673.979,823.188,674.412,822.91,674.813z"/>
	<path fill="#8DDFAD" d="M853.941,622.53c2.636-0.324,5.231-0.795,7.775-1.408c-7.021-13.528-18.597-24.784-33.687-31.189
		c-3.157-1.34-6.352-2.528-9.577-3.564c4.415,1.512,8.003,4.626,10.127,8.793c1.518,2.979,1.784,6.37,0.752,9.549
		c-1.033,3.179-3.243,5.766-6.221,7.284c-0.453,0.23-0.922,0.411-1.401,0.54c0.619,0.546,1.257,1.076,1.913,1.588
		C832.276,620.883,843.048,623.868,853.941,622.53z"/>
	<path fill="#35559D" d="M839.236,701.902c10.763-3.619,19.992-11.643,24.768-22.893c1.047-2.467,1.937-4.959,2.673-7.47
		c-15.745-0.728-31.112,4.006-43.859,13.611c-2.689,2.027-5.257,4.149-7.708,6.367c3.249-2.764,7.303-4.254,11.554-4.254
		c0.318,0,0.638,0.008,0.958,0.025c6.891,0.36,12.204,6.261,11.843,13.153C839.438,700.944,839.36,701.433,839.236,701.902z"/>
	<path fill="#63B5B1" d="M924.238,730.501c0.419,0.272,0.804,0.583,1.15,0.926c2.247-11.129-0.088-23.134-7.441-32.894
		c-1.599-2.121-3.305-4.133-5.107-6.029c-8.205,12.844-12.166,28.497-10.168,44.768c0.418,3.407,0.987,6.77,1.703,10.084
		c-0.9-4.582,0.001-9.25,2.55-13.175C910.685,728.394,918.448,726.743,924.238,730.501z"/>
	<path fill="#7745B9" d="M1002.521,715.826c2.693-3.447,4.402-7.445,5.034-11.657c-7.194-1.525-14.295-3.756-21.215-6.694
		c-2.185-0.927-4.297-1.95-6.338-3.063c1.727,2.634,3.177,5.448,4.319,8.394c0.436,0.747,0.74,1.583,0.881,2.483
		c2.009,6.241,2.667,12.989,1.706,19.814C993.113,724.078,998.626,720.812,1002.521,715.826z"/>
	<path fill="#81275F" d="M875.475,728.297c5.51-4.152,13.375-3.048,17.526,2.463c0.301,0.399,0.557,0.822,0.765,1.264
		c5.918-9.69,7.83-21.769,4.257-33.455c-0.783-2.563-1.704-5.042-2.754-7.44c-12.526,9.568-21.259,23.069-24.848,38.619
		c-1.603,6.939-2.531,13.93-2.801,20.893c0.803-0.138,1.603-0.316,2.397-0.535C866.541,742.625,868.626,733.457,875.475,728.297z"/>
	<path fill="#59C36D" d="M804.651,660.31c-2.726,1.101-4.996,2.969-6.577,5.374c5.708,4.629,12.351,7.489,19.212,8.606
		c0.369-0.026,0.736-0.111,1.089-0.253c0.885-0.357,1.577-1.038,1.95-1.916c1.925-4.535-0.199-9.79-4.733-11.714
		C812.077,658.912,808.191,658.879,804.651,660.31z"/>
	<path fill="#17DD53" d="M850.517,642.158c2.388-1.217,4.671-2.554,6.85-4.005c-11.599-10.675-26.411-16.93-42.347-17.765
		c-3.359-0.175-6.696-0.2-9.996-0.077c4.546-0.025,8.935,1.663,12.302,4.803c5.047,4.707,5.324,12.642,0.618,17.688
		c-0.347,0.372-0.726,0.702-1.132,0.987c0.769,0.301,1.549,0.581,2.341,0.838C829.595,648.02,840.733,647.143,850.517,642.158z"/>
	<path fill="#55F757" d="M794.898,623.523c2.583-1.811,5.6-2.9,8.798-3.155c-3.28,0.161-6.527,0.467-9.731,0.911
		C794.238,622.037,794.549,622.786,794.898,623.523z"/>
	<path fill="#63FBC9" d="M810.275,640.537l0.001-0.001c0.002,0.002,0.005,0.005,0.007,0.007c0.437,0.269,0.88,0.529,1.329,0.781
		c0.39,0.126,0.799,0.186,1.224,0.169c0.954-0.033,1.837-0.436,2.488-1.134c1.627-1.745,2.478-4.02,2.395-6.404
		s-1.09-4.595-2.835-6.222c-2.792-2.604-6.429-3.979-10.249-3.832c-2.938,0.103-5.71,1.081-8.019,2.801
		C800.028,632.402,804.7,637.115,810.275,640.537z"/>
	<path fill="#C1E5ED" d="M827.435,690.864c-3.819-0.194-7.477,1.097-10.314,3.652c-2.185,1.967-3.679,4.498-4.342,7.299
		c6.941,2.397,14.161,2.813,20.985,1.518c1.191-0.528,2.052-1.692,2.125-3.08C836.146,695.334,832.354,691.122,827.435,690.864z"/>
	<path fill="#E5B57B" d="M1044.658,751.637c-21.799,0.76-42.884-4.577-61.296-15.279c-6.023,10.893-18.753,16.973-31.473,14.036
		c-0.021-0.005-0.043-0.01-0.063-0.015c-0.026,0.041-0.053,0.082-0.079,0.122c-0.798,1.228-1.677,2.382-2.631,3.457
		c13.236,15.956,30.729,27.879,50.922,34.443c28.147,9.149,58.174,6.787,84.546-6.65c59.823-30.481,95.396-89.955,98.35-152.661
		c-0.961-9.247-1.229-18.47-0.819-27.599c-1.73-16.17-5.683-32.306-12-47.973c11.211,56.188-3.819,116.809-45.789,161.816
		C1103.486,737.682,1075.193,750.574,1044.658,751.637z"/>
	<path fill="#C3FFCD" d="M832.385,547.774c2.322-4.229,5.699-7.817,9.904-10.444c6.479-4.049,14.146-5.333,21.59-3.613
		c0.021,0.005,0.043,0.01,0.063,0.015c0.026-0.041,0.053-0.082,0.079-0.122c0.802-1.234,1.684-2.387,2.634-3.454
		c-13.236-15.956-30.731-27.882-50.925-34.446c-28.146-9.15-58.171-6.787-84.545,6.65c-59.824,30.481-95.397,89.957-98.35,152.663
		c0.959,9.243,1.211,18.389,0.8,27.415c1.72,16.233,5.677,32.426,12.019,48.153c-11.21-56.188,3.819-116.807,45.79-161.814
		C728.448,529.096,787.291,521.681,832.385,547.774z"/>
	<path fill="#495197" d="M967.837,572.1c-3.197,0.979-6.583,0.652-9.535-0.918c-2.951-1.569-5.115-4.194-6.092-7.392
		c-0.149-0.486-0.245-0.979-0.289-1.474c-0.645,0.515-1.277,1.052-1.896,1.608c-8.16,7.348-12.971,17.433-13.545,28.397
		c-0.139,2.653-0.126,5.289,0.037,7.901c14.541-4.564,27.636-14.01,36.564-27.758c3.879-5.973,7.144-12.224,9.777-18.676
		c-0.802-0.145-1.615-0.25-2.437-0.317C981.131,561.691,976.036,569.593,967.837,572.1z"/>
	<path fill="#6757B1" d="M832.932,730.325c0.794,0.143,1.6,0.248,2.414,0.313c-0.289-3.352,0.388-6.651,1.847-9.554
		C835.618,724.123,834.199,727.205,832.932,730.325z"/>
	<path fill="#6B07F9" d="M1390.705,780.159c-16.123-3.722-28.193-15.785-32.705-30.58c-35.944-17.475-76.429-22.483-116.149-14.04
		c-36.814,7.825-69.53,26.475-94.605,53.514c-5.355,8.026-11.343,15.616-17.923,22.712c-0.45,0.674-0.897,1.353-1.34,2.034
		c-9.662,14.877-21.124,27.897-33.917,38.958c30.073-12.531,63.057-16.831,96.17-12.179c40.001,5.622,76.238,23.764,104.308,51.831
		c0.973-6.08,3.217-11.944,6.67-17.263c4.161-6.407,10.568-10.811,18.041-12.399c7.473-1.591,15.116-0.17,21.524,3.989
		c4.005,2.601,6.757,6.605,7.75,11.276s0.107,9.449-2.493,13.454c-1.82,2.804-4.624,4.73-7.895,5.426
		c-3.271,0.693-6.615,0.074-9.418-1.746c-1.602-1.04-2.704-2.643-3.102-4.512c-0.396-1.868-0.043-3.78,0.998-5.383l3.004,1.951
		c-0.52,0.8-0.697,1.754-0.499,2.688c0.199,0.933,0.749,1.732,1.549,2.252c2.002,1.299,4.389,1.74,6.724,1.247
		c2.334-0.497,4.335-1.872,5.635-3.873c4.294-6.611,2.407-15.483-4.204-19.776c-5.604-3.641-12.288-4.879-18.829-3.49
		c-6.537,1.39-12.142,5.242-15.781,10.848c-3.759,5.787-5.87,12.176-6.453,18.613c4.902,5.152,9.54,10.62,13.884,16.386
		c6.508,8.635,11.602,17.901,15.323,27.521c29.724,12.515,65.139,2.353,83.303-25.616c27.287-42.02,22.375-95.819-8.522-132.172
		C1398.064,781.562,1394.375,781.007,1390.705,780.159z"/>
	<path fill="#65F1BB" d="M1297.619,900.807c0.437,12.981,6.988,25.56,18.685,33.154c1.925,1.251,3.894,2.392,5.892,3.423
		c-3.442-8.058-7.903-15.827-13.407-23.132C1305.256,909.564,1301.53,905.082,1297.619,900.807z"/>
	<path fill="#2BD53D" d="M843.793,703.989c-2.894,1.243-5.913,2.18-9.012,2.794c-0.809,0.297-1.666,0.447-2.594,0.436
		c-6.496,0.894-13.256,0.371-19.812-1.761c-0.068,6.289,2.192,12.285,6.426,16.987c2.932,3.256,6.581,5.637,10.628,6.988
		c2.719-6.778,6.13-13.386,10.254-19.737C840.97,707.716,842.342,705.812,843.793,703.989z"/>
	<path fill="#7909E7" d="M940.295,555.814c-5.513,4.153-13.376,3.047-17.526-2.463c-0.309-0.409-0.566-0.841-0.774-1.288
		c-0.431,0.705-0.842,1.426-1.232,2.162c-5.155,9.695-6.227,20.817-3.017,31.317c0.784,2.563,1.705,5.043,2.755,7.44
		c12.528-9.568,21.259-23.068,24.849-38.619c1.603-6.939,2.531-13.93,2.801-20.894c-0.803,0.139-1.603,0.317-2.397,0.535
		C949.228,541.485,947.142,550.654,940.295,555.814z"/>
	<path fill="#C3D3F5" d="M891.531,553.61c-0.43-0.279-0.819-0.597-1.168-0.946c-0.163,0.81-0.303,1.628-0.419,2.453
		c-1.528,10.873,1.27,21.691,7.878,30.46c1.605,2.13,3.318,4.15,5.131,6.054c8.501-13.276,12.089-28.951,10.144-44.792
		c-0.41-3.339-0.966-6.628-1.659-9.856c0.826,4.509-0.087,9.088-2.594,12.948C905.085,555.716,897.318,557.368,891.531,553.61z"/>
	<path fill="#C51B81" d="M808.224,579.944c7.192,1.524,14.287,3.755,21.206,6.692c2.184,0.927,4.296,1.95,6.338,3.063
		c-1.729-2.636-3.178-5.449-4.321-8.396c-0.434-0.746-0.738-1.581-0.879-2.479c-2.009-6.241-2.667-12.991-1.706-19.816
		C818.004,560.808,809.813,569.464,808.224,579.944z"/>
	<path fill="#A177D7" d="M872.7,658.939c0.039,0.026,0.074,0.049,0.113,0.076c-0.033-0.07-0.068-0.142-0.102-0.211
		C872.708,658.849,872.704,658.893,872.7,658.939z"/>
	<path fill="#ED779F" d="M866.802,623.442c0.74,1.667,1.418,3.366,2.029,5.085c0.916-0.961,1.799-1.945,2.652-2.954
		c0.195-1.306,0.353-2.619,0.472-3.932C870.265,622.306,868.547,622.906,866.802,623.442z"/>
	<path fill="#E3E7DB" d="M870.12,632.331c-0.013,0.013-0.028,0.029-0.042,0.042c0.006,0.02,0.012,0.038,0.017,0.057
		C870.104,632.397,870.112,632.364,870.12,632.331z"/>
	<path fill="#2B2369" d="M869.063,645.852c0.004,0.005,0.008,0.01,0.012,0.016c-0.001-0.013-0.002-0.021-0.003-0.033
		C869.07,645.838,869.065,645.848,869.063,645.852z"/>
	<path fill="#97256D" d="M875.692,620.047c-0.008,0.003-0.017,0.007-0.024,0.011c-0.001,0.009-0.001,0.019-0.002,0.027
		C875.675,620.073,875.685,620.059,875.692,620.047z"/>
	<path fill="#1D3597" d="M885.082,599.89c-2.698-1.302-5.343-2.788-7.921-4.462c-1.994-1.295-3.852-2.724-5.566-4.267
		c1.836,5.114,3.074,10.396,3.712,15.747c2.468,0.145,4.933,0.156,7.384,0.031C883.615,604.634,884.414,602.28,885.082,599.89z"/>
	<path fill="#BD5DB1" d="M871.213,668.326c1.829,0.194,3.652,0.459,5.462,0.792c-0.368-1.257-0.772-2.505-1.213-3.738
		c-1.058-0.843-2.136-1.652-3.24-2.43C871.956,664.746,871.62,666.539,871.213,668.326z"/>
	<path fill="#A975F5" d="M869.406,652.756c-0.688-1.117-1.407-2.216-2.162-3.297c-0.869,1.608-1.803,3.188-2.805,4.74
		c1.645,0.805,3.254,1.669,4.833,2.596C869.357,655.446,869.401,654.1,869.406,652.756z"/>
	<path fill="#8F6935" d="M825.927,603.604c0.737-2.27,0.547-4.69-0.537-6.816c-1.733-3.402-4.688-5.926-8.32-7.106
		c-2.797-0.91-5.736-0.938-8.493-0.111c1.258,6.523,4.036,12.55,8.104,17.672l0.001,0c0.001,0.002,0.002,0.004,0.004,0.007
		c0.32,0.403,0.648,0.8,0.984,1.191c0.323,0.251,0.69,0.447,1.091,0.577c0.907,0.294,1.875,0.219,2.725-0.214
		C823.612,607.721,825.189,605.874,825.927,603.604z"/>
	<path fill="#318561" d="M866.573,642.668c0.526-1.206,1.016-2.424,1.469-3.651c-0.266-1.302-0.568-2.596-0.908-3.879
		c-1.35,1.198-2.75,2.348-4.203,3.45c0.564,0.587,1.121,1.184,1.668,1.792C865.275,641.132,865.933,641.895,866.573,642.668z"/>
	<path fill="#99A92F" d="M854.379,626.085c-2.313,0.284-4.621,0.391-6.91,0.319c4.61,2.693,8.931,5.918,12.888,9.64
		c1.982-1.48,3.865-3.056,5.648-4.719c-0.771-2.35-1.669-4.656-2.689-6.908C860.397,625.154,857.414,625.712,854.379,626.085z"/>
	<path fill="#E5AB79" d="M845.676,648.039c5.338,0.965,10.527,2.534,15.472,4.651c1.37-2.087,2.613-4.233,3.729-6.425
		c-0.938-1.189-1.916-2.352-2.938-3.488c-0.637-0.707-1.285-1.398-1.945-2.074c-2.484,1.692-5.102,3.246-7.849,4.646
		C850.039,646.42,847.878,647.317,845.676,648.039z"/>
	<path fill="#D5FBC9" d="M902.017,599.137c-0.622,0.796-1.258,1.576-1.909,2.342c1.302,0.314,2.612,0.589,3.923,0.825
		c1.212-0.479,2.411-0.995,3.6-1.546c-1.423-1.132-2.805-2.321-4.144-3.565C903.008,597.847,902.519,598.495,902.017,599.137z"/>
	<path fill="#B9B565" d="M912.808,579.841c-1.854,5.01-4.281,9.829-7.261,14.373c1.798,1.697,3.68,3.287,5.639,4.767
		c1.341-0.719,2.664-1.486,3.968-2.3c0.806-0.503,1.6-1.022,2.38-1.555c-1.235-2.74-2.311-5.588-3.213-8.537
		C913.64,584.36,913.136,582.104,912.808,579.841z"/>
	<path fill="#018BE9" d="M879.284,614.176c0.643-1.181,1.249-2.378,1.82-3.592c-1.815,0.047-3.636,0.023-5.459-0.07
		c0.126,1.832,0.182,3.67,0.167,5.506C876.987,615.439,878.146,614.824,879.284,614.176z"/>
	<path fill="#133393" d="M838.505,584.814c-0.5,0.061-0.993,0.068-1.478,0.028c5.433,9.972,14.938,17.667,26.845,20.417
		c2.588,0.597,5.188,1.042,7.788,1.336c-1.97-15.113-8.997-29.65-20.986-40.83c-2.564-2.391-5.215-4.638-7.937-6.739
		c3.566,2.818,6.068,6.984,6.665,11.841C850.243,577.716,845.354,583.973,838.505,584.814z"/>
	<path fill="#C96377" d="M862.268,564.537c-0.491-0.113-0.959-0.275-1.398-0.479c1.693,11.229,7.993,21.71,18.243,28.367
		c2.235,1.452,4.529,2.756,6.862,3.914c3.315-14.874,1.683-30.936-5.759-45.541c-1.554-3.049-3.232-6.005-5.032-8.867
		c2.4,3.992,3.145,8.676,2.094,13.227C875.725,561.882,868.991,566.089,862.268,564.537z"/>
	<path fill="#BDE73F" d="M917.729,603.347c1.35-0.034,2.7-0.108,4.044-0.222c-0.945-1.538-1.834-3.115-2.668-4.738
		c-0.676,0.454-1.36,0.898-2.055,1.332c-0.866,0.541-1.741,1.062-2.623,1.563C915.508,602.003,916.607,602.691,917.729,603.347z"/>
	<path fill="#87E3B5" d="M885.239,610.357c-0.034,0.003-0.07,0.006-0.105,0.009c-0.013,0.031-0.028,0.066-0.042,0.097
		C885.141,610.428,885.19,610.393,885.239,610.357z"/>
	<path fill="#ABBB0F" d="M886.651,606.621c1.327-0.146,2.649-0.332,3.964-0.557c0.998-0.884,1.973-1.799,2.921-2.745
		c-1.734-0.577-3.452-1.223-5.155-1.94C887.872,603.147,887.294,604.896,886.651,606.621z"/>
	<path fill="#33D98F" d="M891.189,581.83c-0.024,5.424-0.667,10.808-1.895,16.045c2.293,0.987,4.623,1.838,6.976,2.556
		c1.008-1.128,1.984-2.296,2.925-3.499c0.585-0.748,1.151-1.505,1.702-2.271c-2.106-2.166-4.088-4.477-5.935-6.928
		C893.541,585.847,892.282,583.873,891.189,581.83z"/>
	<path fill="#419DF5" d="M897.5,604.509c-0.031-0.008-0.064-0.017-0.095-0.025c-0.023,0.024-0.045,0.047-0.068,0.071
		C897.392,604.54,897.445,604.524,897.5,604.509z"/>
	<path fill="#4D79D3" d="M897.979,680.728c-1.333,0.036-2.666,0.11-4.002,0.225c0.953,1.549,1.848,3.137,2.688,4.772
		c0.676-0.454,1.36-0.898,2.055-1.332c0.866-0.541,1.741-1.063,2.624-1.564C900.242,682.095,899.12,681.395,897.979,680.728z"/>
	<path fill="#A70DF3" d="M1126.783,182.755c-7.338,4.79-14.217,10.533-20.455,17.222c-4.002,4.292-7.77,8.739-11.302,13.333
		c12.709-2.684,23.959-11.32,29.408-24.157C1125.333,187.038,1126.114,184.904,1126.783,182.755z"/>
	<path fill="#0BEB15" d="M1091.937,217.45c-23.452,32.365-35.413,71.365-33.996,111.946c1.313,37.614,13.998,73.07,36.271,102.46
		c6.976,6.667,13.41,13.883,19.257,21.595c0.585,0.561,1.176,1.119,1.77,1.673c12.975,12.098,23.804,25.644,32.476,40.163
		c-7.117-31.79-5.624-65.026,4.707-96.82c12.482-38.417,36.641-70.954,69.155-93.723c-5.818-2.013-11.203-5.241-15.842-9.566
		c-5.587-5.21-8.812-12.285-9.078-19.92c-0.266-7.635,2.456-14.917,7.667-20.504c6.725-7.209,18.06-7.604,25.268-0.882
		c2.444,2.28,3.855,5.376,3.972,8.716c0.117,3.341-1.074,6.527-3.354,8.972c-1.303,1.397-3.072,2.204-4.981,2.27
		c-1.932,0.071-3.73-0.614-5.128-1.917l2.443-2.619c0.697,0.651,1.613,1,2.56,0.957c0.953-0.033,1.837-0.436,2.487-1.133
		c1.628-1.746,2.479-4.02,2.395-6.405c-0.083-2.385-1.09-4.595-2.835-6.222c-5.767-5.376-14.83-5.059-20.206,0.706
		c-4.558,4.888-6.939,11.258-6.707,17.937c0.233,6.679,3.054,12.868,7.941,17.426c4.952,4.618,10.831,7.876,17.183,9.605
		c5.935-3.94,12.133-7.563,18.576-10.846c9.55-4.866,19.563-8.325,29.794-10.357c17.452-27.094,13.584-63.708-10.791-86.438
		c-36.645-34.172-90.486-38.675-131.654-14.553c-0.894,3.561-2.074,7.1-3.553,10.583
		C1121.266,205.784,1107.29,215.576,1091.937,217.45z"/>
	<path fill="#BF4369" d="M935.632,180.098c-21.668,76.278,9.542,158.07,75.613,200.779c8.774,3.864,17.241,8.423,25.32,13.637
		c0.743,0.327,1.484,0.647,2.233,0.965c16.1,6.834,30.913,15.754,44.144,26.461c-17.493-27.399-27.417-59.077-28.581-92.418
		c-1.41-40.382,10.168-79.226,32.947-111.749c-6.05,0.104-12.243-1.027-18.175-3.545c-14.518-6.162-21.315-22.986-15.153-37.504
		c1.866-4.396,5.332-7.802,9.76-9.59c4.429-1.788,9.287-1.747,13.683,0.119c3.077,1.307,5.461,3.733,6.713,6.833
		c1.253,3.099,1.223,6.501-0.083,9.578c-1.541,3.63-5.75,5.329-9.379,3.79l1.398-3.297c1.816,0.771,3.914-0.08,4.684-1.892
		c0.933-2.197,0.954-4.625,0.06-6.837c-0.894-2.212-2.596-3.944-4.793-4.877c-3.515-1.493-7.399-1.526-10.94-0.096
		s-6.313,4.154-7.805,7.669c-5.391,12.7,0.556,27.417,13.255,32.808c6.353,2.697,13.01,3.668,19.451,3.123
		c4.223-5.722,8.803-11.239,13.726-16.518c7.374-7.908,15.616-14.534,24.444-19.869c7.166-31.447-8.994-64.558-39.692-77.589
		c-46.129-19.582-98.26-5.399-128.693,31.353c0.379,3.651,0.479,7.381,0.281,11.16C959.184,159.104,949.406,173.081,935.632,180.098
		z"/>
	<path fill="#475FD1" d="M619.534,222.793c0.498,8.84,2.066,17.681,4.721,26.366c1.719,5.624,3.692,11.123,5.91,16.488
		c0.75-2.297,1.302-4.678,1.646-7.121c1.528-10.874-1.269-21.691-7.877-30.46C622.545,226.225,621.078,224.466,619.534,222.793z"/>
	<path fill="#3B01D1" d="M1237.647,303.578c10.974-0.383,21.141-5.017,28.629-13.047c1.565-1.679,3.031-3.419,4.394-5.208
		c-8.533,1.991-16.959,5.034-25.109,9.187c-5.239,2.67-10.313,5.568-15.211,8.684
		C1232.741,303.533,1235.178,303.664,1237.647,303.578z"/>
	<path fill="#D585CF" d="M1268.896,292.973c-8.141,8.73-19.193,13.768-31.123,14.184c-4.009,0.137-7.945-0.247-11.743-1.128
		c-33.089,22.391-57.658,54.941-70.202,93.546c-11.692,35.985-11.841,73.849-0.786,109.247c4.067,8.33,7.466,16.896,10.206,25.649
		c0.465,0.953,0.938,1.901,1.421,2.848c7.94,15.584,13.554,31.938,16.807,48.644c4.213-32.23,16.973-62.88,37.511-89.167
		c24.877-31.841,58.715-54.155,97.07-64.426c-4.714-3.817-8.718-8.656-11.645-14.399c-3.468-6.807-4.078-14.558-1.718-21.824
		c2.361-7.266,7.41-13.178,14.218-16.646c4.255-2.168,9.101-2.548,13.641-1.074c4.541,1.476,8.236,4.632,10.404,8.887
		c1.518,2.979,1.784,6.37,0.752,9.549c-1.033,3.179-3.242,5.766-6.222,7.283c-1.703,0.868-3.642,1.02-5.457,0.43
		c-1.817-0.59-3.296-1.853-4.163-3.556l3.191-1.625c0.433,0.85,1.171,1.48,2.078,1.775c0.908,0.295,1.874,0.219,2.725-0.214
		c2.127-1.083,3.704-2.93,4.441-5.2s0.547-4.69-0.537-6.816c-1.733-3.403-4.688-5.926-8.32-7.106
		c-3.628-1.18-7.504-0.875-10.908,0.858c-5.954,3.034-10.371,8.206-12.437,14.562c-2.065,6.356-1.531,13.137,1.503,19.091
		c3.133,6.148,7.61,11.171,12.894,14.895c6.913-1.669,13.967-2.951,21.132-3.831c10.639-1.306,21.231-1.132,31.541,0.457
		c25.666-19.491,34.554-55.22,19.422-84.916c-22.748-44.648-71.8-67.293-118.737-58.704
		C1273.796,287.284,1271.477,290.206,1268.896,292.973z"/>
	<path fill="#3FF1B7" d="M937.113,175.153c11.02-6.869,18.63-18.829,19.359-32.751c0.12-2.292,0.124-4.568,0.019-6.814
		c-5.258,7.011-9.756,14.759-13.33,23.179C940.86,164.186,938.849,169.649,937.113,175.153z"/>
	<path fill="#3DEDC5" d="M775.652,193.324c8.011-10.225,11.076-24.072,6.999-37.408c-0.672-2.197-1.444-4.333-2.313-6.41
		c-2.542,8.386-4.12,17.206-4.599,26.34C775.432,181.704,775.405,187.538,775.652,193.324z"/>
	<path fill="#3B6343" d="M635.358,259.025c-0.558,3.966-1.622,7.78-3.151,11.369c16.305,36.474,44.094,66.323,79.935,85.38
		c33.408,17.763,70.679,24.482,107.458,19.743c8.904-2.557,17.931-4.416,27.021-5.595c1.019-0.292,2.039-0.595,3.055-0.905
		c16.726-5.113,33.807-7.802,50.824-8.104c-31.013-9.745-58.977-27.632-81.3-52.425c-27.038-30.028-43.137-67.227-46.591-106.783
		c-4.577,3.978-10.04,7.083-16.203,8.967c-7.305,2.234-15.044,1.488-21.79-2.098c-6.746-3.587-11.691-9.586-13.924-16.892
		c-1.396-4.566-0.931-9.403,1.311-13.62c2.242-4.216,5.992-7.308,10.558-8.704c6.6-2.016,13.61,1.711,15.627,8.31
		c0.559,1.827,0.373,3.762-0.524,5.449s-2.397,2.924-4.225,3.482l-1.047-3.425c0.912-0.279,1.661-0.896,2.109-1.739
		c0.448-0.842,0.541-1.809,0.262-2.721c-1.44-4.71-6.441-7.371-11.156-5.932c-7.538,2.305-11.796,10.313-9.491,17.852
		c1.954,6.391,6.28,11.639,12.181,14.777c5.902,3.138,12.672,3.79,19.062,1.835c6.599-2.018,12.323-5.555,16.908-10.111
		c-0.443-7.098-0.481-14.267-0.103-21.476c0.566-10.798,2.62-21.171,5.953-30.932c-14.725-28.695-48.389-43.673-80.279-33.924
		c-28.308,8.655-51.552,27.811-65.449,53.94c-8.781,16.51-13.167,34.557-13.023,52.748c2.667,2.585,5.152,5.398,7.43,8.421
		C633.978,235.445,637.019,247.205,635.358,259.025z"/>
	<path fill="#976737" d="M775.945,198.482c2.838,39.867,18.744,77.432,45.915,107.608c25.184,27.969,57.69,46.977,93.645,55.174
		c9.632,0.624,19.201,2.016,28.64,4.167c0.809,0.053,1.614,0.101,2.426,0.143c17.525,0.918,34.552,4.253,50.695,9.824
		c-58.289-44.728-85.113-121.244-65.867-193.414c-5.669,2.18-11.871,3.229-18.315,2.894c-7.63-0.399-14.646-3.747-19.759-9.424
		c-5.112-5.677-7.707-13.006-7.307-20.635c0.25-4.769,2.342-9.155,5.891-12.35c3.548-3.195,8.123-4.821,12.897-4.567
		c3.338,0.175,6.409,1.639,8.646,4.124c2.237,2.485,3.373,5.691,3.197,9.029c-0.207,3.938-3.557,6.984-7.518,6.769l0.188-3.576
		c1.938,0.092,3.651-1.414,3.754-3.38c0.125-2.383-0.686-4.672-2.282-6.445s-3.789-2.819-6.172-2.944
		c-3.817-0.195-7.477,1.098-10.313,3.653c-2.838,2.555-4.511,6.063-4.711,9.876c-0.35,6.674,1.92,13.085,6.392,18.051
		c4.473,4.967,10.61,7.895,17.285,8.245c6.894,0.36,13.493-1.008,19.362-3.726c1.994-6.794,4.399-13.536,7.231-20.209
		c4.226-9.953,9.703-18.998,16.174-27.03c-4.022-32.001-30.531-57.59-63.835-59.335c-50.037-2.623-94.18,28.533-110.208,73.478
		c1.605,3.304,2.974,6.77,4.081,10.391C790.914,170.693,786.502,187.178,775.945,198.482z"/>
	<path fill="#A7818B" d="M1370.844,430.89c-8.789-1.043-17.767-1.035-26.779,0.072c-5.822,0.715-11.572,1.701-17.228,2.949
		c11.46,6.113,25.629,6.728,38.056,0.396C1366.954,433.257,1368.938,432.116,1370.844,430.89z"/>
	<path fill="#2FA36B" d="M900.033,919.151c16.286,1.123,32.919,0.039,49.509-3.476c-1.384,0.031-2.767,0.047-4.15,0.047
		c-55.882,0.004-111.112-25.273-147.257-73.239c-32.655-43.334-29.737-102.576,3.797-142.454c-9.699-7.82-13.485-21.426-8.381-33.45
		c0.009-0.02,0.017-0.04,0.026-0.06c-0.036-0.033-0.072-0.066-0.107-0.099c-1.063-0.992-2.042-2.052-2.93-3.169
		c-43.904,25.13-66.309,78.2-50.912,128.562c19.63,64.207,72.026,109.568,133.267,123.365
		C882.163,915.838,891.215,917.179,900.033,919.151z"/>
	<path fill="#AB3B79" d="M806.38,900.137c14.895,6.514,30.711,11.002,47.098,13.298c-54.287-18.376-99.278-61.707-117.276-120.575
		c-8.934-29.221-5.952-60.169,8.395-87.145c10.242-19.257,25.402-34.845,43.872-45.439c-2.492-4.12-3.905-8.83-4.078-13.775
		c-0.267-7.635,2.456-14.917,7.667-20.504c0.015-0.016,0.03-0.032,0.044-0.047c-0.022-0.043-0.044-0.086-0.066-0.13
		c-0.66-1.296-1.217-2.626-1.669-3.981c-49.856,8.595-89.056,50.801-91.812,103.396c-2.523,48.154,13.856,94.409,46.122,130.244
		c10.83,12.027,23.013,22.397,36.243,30.963C789.831,890.379,798.333,894.96,806.38,900.137z"/>
	<path fill="#FB8D77" d="M995.274,905.127c15.688-4.513,30.954-11.226,45.342-20.202c-53.39,20.805-115.695,16.53-167.313-16.991
		c-45.503-29.551-63.023-86.213-45.156-135.153c-4.569-1.553-8.688-4.256-12.006-7.94c-5.112-5.677-7.707-13.006-7.307-20.635
		c0.001-0.021,0.002-0.043,0.003-0.065c-0.044-0.019-0.09-0.038-0.134-0.057c-1.346-0.571-2.626-1.235-3.835-1.979
		c-32.667,38.631-35.568,96.163-3.873,138.224c40.407,53.621,105.157,78.326,167.423,70.347
		C977.342,908.129,986.325,906.289,995.274,905.127z"/>
	<path fill="#797DAB" d="M663.987,773.802c7.168,14.666,16.425,28.529,27.764,41.139c-29.751-48.965-36.362-111.07-12.316-167.718
		c11.939-28.126,34.116-49.918,62.446-61.36c20.227-8.17,41.863-10.367,62.825-6.607c1.934-12.297,11.819-22.364,24.774-23.955
		c0.021-0.002,0.043-0.005,0.064-0.008c0.011-0.047,0.021-0.095,0.032-0.142c0.327-1.417,0.756-2.794,1.28-4.122
		c-43.715-25.456-100.877-18.326-136.793,20.189c-45.791,49.104-58.877,117.159-40.205,177.094
		C657.92,756.67,661.286,765.18,663.987,773.802z"/>
	<path fill="#CB77D3" d="M723.887,849.402c11.584,11.144,24.816,20.87,39.518,28.762c-7.585-6.129-14.737-12.902-21.389-20.29
		c-32.906-36.546-49.611-83.718-47.037-132.828c2.839-54.179,43.155-97.682,94.467-106.683c-0.94-4.733-0.659-9.652,0.874-14.368
		c2.361-7.266,7.41-13.178,14.217-16.646c0.02-0.01,0.039-0.02,0.058-0.029c-0.006-0.048-0.012-0.096-0.018-0.144
		c-0.179-1.461-0.245-2.911-0.203-4.339c-20.397-3.714-41.461-1.605-61.152,6.347c-27.443,11.084-48.925,32.193-60.49,59.439
		c-26.234,61.804-15.257,130.229,22.788,180.163C712.201,835.253,718.332,842.144,723.887,849.402z"/>
	<path fill="#FDF945" d="M1408.821,606.696c-1.839,0.226-3.67,0.336-5.478,0.336c-14.335,0.001-27.455-6.912-35.714-17.885
		c-39.762-4.13-79.512,5.013-113.947,26.531c-32.085,20.049-56.538,48.963-70.823,83.182c-2.239,8.995-5.143,17.745-8.669,26.211
		c-0.257,1.028-0.504,2.058-0.742,3.093c-3.935,17.042-10.147,33.179-18.395,48.068c23.946-21.985,53.42-37.259,86.053-44.196
		c39.521-8.401,79.79-3.741,115.772,13.042c-1.157-5.953-1.114-12.236,0.335-18.515c1.719-7.444,6.233-13.773,12.713-17.822
		c6.479-4.049,14.147-5.333,21.59-3.613c4.653,1.074,8.609,3.896,11.141,7.946c2.53,4.05,3.332,8.842,2.258,13.495
		c-0.752,3.257-2.728,6.026-5.563,7.798c-2.834,1.772-6.188,2.334-9.448,1.581c-1.861-0.43-3.444-1.559-4.456-3.179
		c-1.013-1.62-1.334-3.538-0.904-5.399l3.49,0.806c-0.215,0.93-0.055,1.887,0.451,2.696c0.505,0.809,1.296,1.373,2.225,1.587
		c2.325,0.536,4.72,0.136,6.745-1.129c2.023-1.264,3.434-3.241,3.97-5.566c0.859-3.721,0.219-7.553-1.805-10.792
		c-2.024-3.238-5.188-5.495-8.908-6.354c-6.512-1.502-13.221-0.381-18.888,3.161c-5.668,3.542-9.617,9.078-11.12,15.59
		c-1.553,6.724-1.352,13.449,0.303,19.697c6.368,3.165,12.596,6.718,18.65,10.649c9.071,5.892,17.033,12.863,23.821,20.633
		c13.749,0.703,27.382-2.804,39.313-10.256c15.392-9.613,26.115-24.642,30.195-42.317c6.659-28.843,1.691-58.551-13.988-83.65
		c-9.908-15.86-23.344-28.682-39.169-37.652C1416.257,605.489,1412.578,606.235,1408.821,606.696z"/>
	<path fill="#C781B1" d="M1408.386,603.142c2.289-0.281,4.546-0.673,6.767-1.173c-7.905-3.989-16.346-7.051-25.194-9.094
		c-5.716-1.319-11.455-2.359-17.196-3.121C1381.44,599.418,1394.55,604.841,1408.386,603.142z"/>
	<path fill="#191B95" d="M1366.518,437.498c-14.741,7.511-31.746,6.028-44.71-2.402c-38.769,9.718-73,31.905-98,63.903
		c-23.172,29.658-36.246,64.97-38.074,101.802c1.057,9.591,1.349,19.261,0.87,28.926c0.088,0.806,0.182,1.61,0.28,2.416
		c2.162,17.607,1.751,34.944-0.939,51.641c14.982-28.927,37.49-53.427,65.841-71.143c34.265-21.41,73.693-30.805,113.252-27.341
		c-3.124-5.199-5.231-11.116-6.018-17.514c-0.931-7.583,1.146-15.074,5.85-21.095c4.704-6.02,11.471-9.848,19.054-10.779
		c4.738-0.583,9.422,0.717,13.185,3.656c3.764,2.94,6.156,7.169,6.738,11.909c0.841,6.85-4.048,13.106-10.897,13.947
		c-3.916,0.479-7.489-2.314-7.971-6.228l3.555-0.437c0.24,1.955,2.019,3.353,3.98,3.11c4.889-0.6,8.379-5.066,7.778-9.956
		c-0.961-7.826-8.121-13.405-15.932-12.447c-6.634,0.814-12.554,4.163-16.668,9.43s-5.932,11.82-5.117,18.453
		c0.841,6.849,3.33,13.101,7.021,18.407c7.07,0.796,14.131,2.003,21.168,3.628c10.448,2.412,20.347,6.201,29.495,11.225
		c13.146-4.052,24.729-12,33.38-23.066c11.176-14.298,16.112-32.088,13.901-50.093c-3.607-29.381-18.437-55.598-41.755-73.821
		c-14.737-11.517-31.754-18.971-49.696-21.987C1373.101,433.809,1369.908,435.771,1366.518,437.498z"/>
	<path fill="#E3FBC3" d="M1391.51,776.67c2.231,0.515,4.471,0.917,6.712,1.206c-5.991-6.395-12.844-12.175-20.516-17.157
		c-4.922-3.196-9.955-6.134-15.093-8.814C1367.463,763.954,1377.923,773.533,1391.51,776.67z"/>
	<path fill="#070BB9" d="M1080.134,859.262c12.985-9.473,24.86-20.815,35.185-33.922c-7.353,6.406-15.267,12.274-23.697,17.542
		c-41.705,26.06-91.063,34.316-138.978,23.257c-52.867-12.206-88.71-59.458-88.658-111.557c-4.842,0.104-9.621-1.028-13.998-3.355
		c-6.746-3.586-11.69-9.585-13.924-16.892c-0.007-0.021-0.013-0.042-0.02-0.063c-0.048-0.002-0.098-0.005-0.146-0.007
		c-1.452-0.076-2.883-0.259-4.281-0.544c-17.479,47.472-0.53,102.527,43.637,131.209c56.305,36.564,125.598,37.636,181.377,8.848
		C1064.163,868.317,1072.018,863.474,1080.134,859.262z"/>
	<path fill="#81B1A9" d="M636.141,586.735c-3.86,15.857-5.547,32.271-4.96,48.872c8.669-56.653,43.529-108.491,98.378-136.438
		c48.347-24.634,106.181-11.474,139.63,28.476c9.387-8.194,23.441-9.559,34.398-2.446c0.018,0.012,0.036,0.024,0.055,0.036
		c0.038-0.029,0.077-0.059,0.116-0.088c1.161-0.875,2.374-1.654,3.629-2.335c-17.124-47.601-65.497-78.885-117.767-72.463
		c-47.861,5.876-90.569,30.04-120.256,68.038c-9.964,12.753-18.06,26.551-24.199,41.067
		C642.834,568.91,639.804,578.016,636.141,586.735z"/>
	<path fill="#01DF75" d="M1039.809,1085.645c-5.74-79.285-63.316-145.602-140.296-162.939c-9.182-0.647-18.254-1.985-27.142-3.974
		c-1.057-0.074-2.11-0.139-3.172-0.194c-17.466-0.915-34.437-4.231-50.531-9.768c25.81,19.765,45.969,46.138,58.467,77.07
		c15.136,37.464,17.541,77.927,7.259,116.279c5.662-2.174,11.859-3.225,18.293-2.886c7.63,0.4,14.646,3.747,19.759,9.425
		c5.111,5.677,7.707,13.006,7.307,20.635c-0.25,4.769-2.342,9.155-5.891,12.351c-3.548,3.194-8.127,4.816-12.897,4.567
		c-6.892-0.361-12.204-6.262-11.844-13.153c0.207-3.938,3.566-6.986,7.518-6.769l-0.188,3.576c-0.957-0.04-1.867,0.274-2.577,0.912
		c-0.709,0.639-1.127,1.516-1.177,2.468c-0.258,4.919,3.535,9.131,8.455,9.39c3.818,0.209,7.477-1.097,10.313-3.652
		c2.838-2.556,4.511-6.063,4.711-9.877c0.35-6.674-1.92-13.085-6.393-18.052c-4.472-4.966-10.61-7.895-17.284-8.244
		c-6.896-0.361-13.48,1.005-19.347,3.719c-2.011,6.821-4.428,13.571-7.248,20.216c-4.19,9.872-9.641,18.962-16.176,27.099
		c1.707,13.65,7.522,26.438,16.92,36.879c12.14,13.488,28.803,21.439,46.918,22.389c50.04,2.61,94.181-28.532,110.208-73.478
		c-1.604-3.302-2.975-6.772-4.081-10.391C1024.858,1113.427,1029.265,1096.948,1039.809,1085.645z"/>
	<path fill="#9599DD" d="M878.667,1108.952c-11.024,6.868-18.641,18.832-19.371,32.758c-0.12,2.304-0.126,4.595-0.02,6.868
		c5.302-7.092,9.783-14.873,13.331-23.232C874.899,1119.946,876.92,1114.474,878.667,1108.952z"/>
	<path fill="#11CD39" d="M1040.106,1090.761c-1.486,1.899-2.816,3.942-3.973,6.116c-5.154,9.695-6.226,20.817-3.016,31.318
		c0.672,2.195,1.445,4.335,2.313,6.409c2.543-8.386,4.12-17.205,4.599-26.34C1040.339,1102.373,1040.36,1096.538,1040.106,1090.761z
		"/>
	<path fill="#EDC50F" d="M880.155,1104.005c10.968-38.434,8.87-79.174-6.341-116.823c-14.1-34.896-38.146-63.876-69.128-83.876
		c-8.834-3.88-17.35-8.46-25.481-13.707c-0.742-0.326-1.487-0.648-2.235-0.966c-16.329-6.932-31.139-15.957-44.253-26.634
		c17.56,27.438,27.524,59.181,28.691,92.591c1.41,40.37-10.164,79.207-32.93,111.724c6.162-0.101,12.32,1.094,18.158,3.571
		c7.032,2.985,12.481,8.53,15.344,15.613c2.862,7.084,2.794,14.857-0.191,21.89c-1.866,4.396-5.332,7.803-9.76,9.591
		c-4.426,1.79-9.285,1.746-13.682-0.119c-3.077-1.307-5.461-3.732-6.714-6.832s-1.223-6.501,0.083-9.578
		c1.542-3.632,5.749-5.332,9.379-3.79l-1.399,3.297c-1.813-0.77-3.914,0.079-4.684,1.893c-0.932,2.196-0.953,4.624-0.059,6.837
		c0.894,2.213,2.596,3.944,4.792,4.877c3.515,1.492,7.399,1.524,10.941,0.096c3.541-1.431,6.312-4.154,7.804-7.669
		c2.611-6.152,2.671-12.953,0.167-19.149c-2.503-6.196-7.271-11.047-13.422-13.658c-6.231-2.645-12.871-3.698-19.431-3.15
		c-4.229,5.732-8.814,11.257-13.746,16.546c-7.31,7.838-15.537,14.514-24.456,19.924c-7.133,31.43,9.025,64.512,39.705,77.534
		c27.249,11.565,57.368,11.832,84.809,0.749c17.34-7.003,32.299-18.008,43.881-32.035c-0.38-3.694-0.477-7.446-0.278-11.227
		C856.586,1125,866.371,1111.019,880.155,1104.005z"/>
	<path fill="#87EB99" d="M691.335,1094.958c-0.904,2.131-1.691,4.28-2.363,6.445c7.405-4.851,14.276-10.628,20.468-17.269
		c4.01-4.301,7.787-8.76,11.325-13.363c-2.365,0.499-4.702,1.211-6.99,2.135C703.595,1077.02,695.625,1084.851,691.335,1094.958z"/>
	<path fill="#E123D1" d="M1314.353,936.965c-10.011-6.501-16.891-16.512-19.372-28.188c-0.833-3.918-1.137-7.866-0.928-11.761
		c-27.797-28.698-64.119-47.242-104.315-52.892c-37.47-5.266-74.787,1.164-107.728,18.198c-7.488,5.444-15.346,10.286-23.479,14.5
		c-0.86,0.625-1.712,1.256-2.563,1.896c-14.218,10.714-29.497,19.047-45.36,25.07c73.463-3.295,143.294,38.084,174.979,105.786
		c2.994-5.389,7.111-10.139,12.184-13.96c6.101-4.599,13.633-6.547,21.192-5.481c7.565,1.063,14.265,5.009,18.862,11.11
		c5.933,7.872,4.354,19.104-3.518,25.036c-2.67,2.013-5.967,2.864-9.274,2.398c-3.311-0.465-6.241-2.191-8.253-4.861
		c-2.374-3.149-1.742-7.644,1.408-10.017l2.154,2.859c-1.572,1.186-1.888,3.43-0.703,5.003c1.437,1.905,3.528,3.138,5.892,3.47
		c2.367,0.334,4.715-0.276,6.621-1.712c6.295-4.745,7.558-13.726,2.813-20.021c-4.022-5.338-9.883-8.79-16.501-9.721
		c-6.615-0.928-13.202,0.773-18.539,4.795c-5.413,4.078-9.646,9.308-12.451,15.27c2.843,6.491,5.342,13.222,7.463,20.16
		c3.162,10.341,4.779,20.79,4.986,31.103c23.648,21.928,60.404,24.491,87.04,4.422c40.02-30.157,53.805-82.396,37.192-127.128
		C1320.804,940.803,1317.528,939.026,1314.353,936.965z"/>
	<path fill="#ADDD8B" d="M712.434,1069.586c3.713-1.5,7.549-2.485,11.421-2.956c23.435-32.357,35.39-71.348,33.974-111.915
		c-1.321-37.811-14.134-73.446-36.626-102.926c-6.67-6.437-12.795-13.326-18.364-20.613c-0.762-0.735-1.531-1.465-2.308-2.189
		c-13.019-12.141-23.878-25.737-32.565-40.313c16.003,71.792-12.629,147.747-73.822,190.703c5.744,1.974,11.169,5.154,15.89,9.557
		c11.534,10.756,12.167,28.891,1.412,40.425c-6.723,7.21-18.057,7.604-25.267,0.883c-5.047-4.707-5.324-12.642-0.618-17.689
		c2.688-2.884,7.224-3.043,10.109-0.353l-2.442,2.619c-1.44-1.344-3.706-1.265-5.048,0.176c-3.359,3.604-3.162,9.268,0.441,12.628
		c5.766,5.376,14.83,5.061,20.206-0.706c9.409-10.09,8.854-25.954-1.235-35.363c-5.051-4.71-10.984-7.9-17.228-9.591
		c-5.895,3.923-12.07,7.541-18.529,10.832c-9.55,4.865-19.564,8.324-29.795,10.357c-17.452,27.095-13.584,63.708,10.791,86.438
		c21.65,20.188,49.854,30.747,79.438,29.711c18.692-0.65,36.519-5.879,52.203-15.102c0.896-3.581,2.08-7.136,3.567-10.639
		C692.703,1082.571,701.366,1074.058,712.434,1069.586z"/>
	<path d="M1488.694,887.31c172.155-430.179-38.201-804.688-513.982-854.383C554.598-10.955,320.918,227.601,288.075,474.058
		c-3.481,26.388,0,52.776,12.442,80.161c-57.715,90.119-190.57,223.055-202.01,286.786c-6.968,38.337,38.311,51.78,60.206,65.224
		c20.899,6.971,43.785,1.99,57.715,18.92c9.951,12.448-3.481,33.359-6.47,48.794c-0.498,25.392-30.346,37.84-27.363,61.24
		c2.989,19.916,19.903,27.883,35.328,40.33c16.421,12.944-41.798,37.839-22.892,60.743c19.404,22.404,47.77,48.295,37.813,80.16
		c-14.429,49.291-42.296,100.573-19.405,138.911c22.892,37.84,54.732,60.244,103.991,70.2c60.671,0,121.653,0.931,182.7,1.328
		c33.999,0.221,64.925,19.568,80.147,49.97c24.314,48.561,34.143,98.875,30.219,150.852h781.666
		c-32.843-154.35-72.15-408.273-55.23-470.509C1364.8,1051.615,1454.854,971.952,1488.694,887.31z M1289.12,1072.289
		c-27.145,20.454-64.27,18.576-89.201-2.502c-1.063,48.012-32.561,92.155-80.939,106.945c-6.936,2.121-13.957,3.13-20.859,3.131
		c-25.422,0.002-49.31-13.679-62.074-35.935c-6.391,16.488-16.608,31.366-30.133,43.541c-21.183,19.067-48.112,29.378-76.406,29.378
		c-2.036,0-4.079-0.054-6.128-0.161c-19.071-0.999-36.612-9.37-49.393-23.569c-9.15-10.167-15.075-22.447-17.334-35.605
		c-11.643,13.301-26.328,23.781-43.194,30.594c-28.328,11.44-59.42,11.165-87.549-0.773c-31.263-13.271-48.202-46.327-42.445-78.439
		c-15.494,8.524-32.885,13.354-51.071,13.986c-30.542,1.047-59.656-9.83-82.005-30.671c-24.839-23.163-29.45-60.02-13.057-88.225
		c-17.474,2.71-35.469,1.301-52.775-4.326c-29.055-9.444-52.696-29.641-66.569-56.868c-8.67-17.015-10.192-36.392-4.285-54.56
		c4.236-13.027,11.928-24.313,22.217-32.854c-47.093-9.389-85.08-48.068-91.245-98.277c-2.327-18.955,2.87-37.683,14.635-52.735
		c8.436-10.793,19.524-18.769,32.114-23.275c-41.036-24.931-63.508-74.272-52.129-123.558c7.624-33.021,37.132-55.42,69.673-55.42
		c0.088,0,0.178,0,0.266,0c-30.046-37.463-34.293-91.524-6.74-133.952c18.497-28.483,53.992-39.425,84.617-28.179
		c-5.704-16.739-7.439-34.705-4.905-52.724c4.255-30.253,20.04-57.042,44.444-75.433c15.251-11.493,34.068-16.355,52.987-13.693
		c13.544,1.906,25.977,7.506,36.166,16.133c0.369-17.673,4.882-35.141,13.423-51.2c14.346-26.974,38.341-46.75,67.564-55.684
		c32.498-9.938,66.747,4.523,82.965,32.86c17.421-44.752,62.113-75.455,112.636-72.813c33.938,1.779,61.174,27.081,66.723,59.254
		c31.677-36.095,84.18-49.667,130.746-29.899c31.283,13.279,48.224,46.37,42.435,78.501c42.111-23.086,96.089-17.879,133.088,16.622
		c24.838,23.163,29.448,60.019,13.056,88.225c17.478-2.71,35.471-1.3,52.775,4.325c29.055,9.445,52.696,29.641,66.569,56.868
		c15.419,30.261,7.146,66.472-17.904,87.37c17.348,3.43,33.774,10.91,48.112,22.115c24.072,18.812,39.381,45.876,43.104,76.207
		c2.327,18.955-2.87,37.683-14.635,52.735c-8.423,10.777-19.488,18.744-32.054,23.254c15.12,9.156,27.991,21.798,37.629,37.225
		c16.187,25.911,21.315,56.579,14.441,86.354c-4.296,18.608-15.586,34.429-31.789,44.549c-11.509,7.188-24.518,10.889-37.759,10.889
		c-0.126,0-0.252,0-0.379-0.001c30.034,37.462,34.275,91.513,6.728,133.936c-13.678,21.061-36.653,32.53-60.076,32.532
		c-8.275,0.001-16.603-1.43-24.601-4.375C1344.021,989.59,1329.522,1041.844,1289.12,1072.289z"/>
	<path fill="#1B1D71" d="M1196.201,1061.276c-0.479-8.75-2.013-17.577-4.688-26.324c-1.725-5.642-3.7-11.133-5.915-16.475
		c-0.747,2.293-1.298,4.669-1.641,7.107c-1.528,10.873,1.27,21.69,7.877,30.459
		C1193.217,1057.878,1194.676,1059.623,1196.201,1061.276z"/>
	<path fill="#EF654F" d="M1180.411,1025.086c0.557-3.959,1.618-7.767,3.143-11.35c-32.52-72.52-109.305-115.12-187.559-105.092
		c-8.844,2.529-17.817,4.374-26.844,5.545c-1.019,0.292-2.041,0.595-3.058,0.905c-17.018,5.203-34.232,7.81-51.193,8.046
		c70.167,22.041,121.638,84.816,128.242,159.283c4.58-3.986,10.05-7.097,16.222-8.983c7.305-2.233,15.045-1.489,21.79,2.098
		c6.746,3.587,11.69,9.586,13.924,16.893c2.883,9.427-2.442,19.44-11.869,22.322c-3.196,0.979-6.583,0.653-9.534-0.918
		c-2.952-1.569-5.116-4.193-6.094-7.391c-0.559-1.827-0.372-3.763,0.525-5.449c0.896-1.688,2.396-2.924,4.225-3.482l1.047,3.425
		c-0.912,0.278-1.662,0.896-2.11,1.738c-0.447,0.843-0.54,1.81-0.262,2.722c1.441,4.711,6.448,7.373,11.156,5.931
		c7.538-2.305,11.797-10.313,9.492-17.851c-1.954-6.392-6.28-11.64-12.182-14.777c-5.901-3.136-12.668-3.787-19.062-1.836
		c-6.481,1.982-12.247,5.448-16.923,10.091c0.451,7.072,0.498,14.251,0.118,21.497c-0.561,10.703-2.572,21.105-5.927,30.982
		c14.737,28.66,48.377,43.617,80.253,33.874c47.921-14.65,78.741-59.024,78.431-106.741c-2.637-2.554-5.111-5.346-7.388-8.368
		C1181.792,1048.667,1178.75,1036.906,1180.411,1025.086z"/>
	<path fill="#25297B" d="M549.492,993.581c-1.565,1.68-3.031,3.419-4.394,5.208c8.534-1.991,16.96-5.034,25.11-9.188
		c5.246-2.673,10.298-5.564,15.166-8.665c-1.925-0.272-3.864-0.409-5.804-0.409C568.56,980.527,557.576,984.912,549.492,993.581z"/>
	<path fill="#B9BB07" d="M406.948,677.415c11.842-1.455,23.553,1.792,32.959,9.141c3.151,2.461,5.917,5.284,8.258,8.396
		c78.866,8.079,153.977-36.856,184.56-109.33c2.282-9.315,5.3-18.442,9.034-27.307c0.193-0.788,0.38-1.573,0.563-2.367
		c3.99-17.285,10.308-33.437,18.545-48.207c-23.973,22.058-53.503,37.384-86.204,44.334c-12.859,2.733-25.805,4.084-38.648,4.084
		c-26.629,0.001-52.85-5.804-77.124-17.126c1.157,5.953,1.114,12.236-0.336,18.515c-1.719,7.444-6.233,13.773-12.712,17.822
		s-14.149,5.331-21.591,3.613c-4.653-1.074-8.609-3.896-11.139-7.945c-2.53-4.05-3.333-8.842-2.258-13.495
		c0.751-3.257,2.727-6.027,5.562-7.798c2.835-1.771,6.189-2.333,9.447-1.581c3.843,0.888,6.248,4.736,5.361,8.579l-3.489-0.806
		c0.443-1.918-0.758-3.84-2.677-4.284c-2.324-0.535-4.72-0.136-6.744,1.129s-3.434,3.242-3.971,5.567
		c-1.773,7.681,3.033,15.372,10.714,17.146c6.512,1.503,13.219,0.381,18.887-3.161c5.668-3.542,9.617-9.078,11.121-15.59
		c1.552-6.724,1.352-13.449-0.302-19.697c-6.369-3.165-12.597-6.718-18.651-10.649c-9.069-5.889-17.025-12.855-23.812-20.622
		c-32.214-1.581-62.016,20.068-69.518,52.562c-6.659,28.843-1.691,58.551,13.989,83.65c9.908,15.86,23.343,28.682,39.168,37.652
		C399.513,678.622,403.189,677.876,406.948,677.415z"/>
	<path fill="#ED37E1" d="M424.259,507.441c-2.237-0.516-4.477-0.916-6.708-1.201c5.991,6.395,12.84,12.171,20.511,17.152
		c4.938,3.207,9.968,6.136,15.087,8.801C448.298,520.15,437.841,510.578,424.259,507.441z"/>
	<path fill="#55D333" d="M425.064,503.952c16.114,3.72,28.181,15.775,32.699,30.559c71.532,34.67,157.756,17.966,211.261-40.032
		c5.148-7.623,10.841-14.809,17.003-21.507c0.592-0.878,1.181-1.768,1.76-2.659c9.527-14.671,20.881-27.708,33.726-38.879
		c-30.021,12.47-62.942,16.741-95.979,12.1c-40.001-5.622-76.238-23.764-104.308-51.831c-0.973,6.08-3.216,11.944-6.67,17.262
		c-8.59,13.227-26.338,17-39.565,8.41c-8.268-5.369-10.625-16.462-5.256-24.729c1.82-2.804,4.624-4.731,7.894-5.426
		c3.268-0.696,6.615-0.076,9.418,1.746c1.603,1.041,2.704,2.643,3.101,4.512c0.397,1.869,0.043,3.78-0.998,5.383l-3.004-1.95
		c1.073-1.652,0.602-3.868-1.05-4.94c-2.001-1.3-4.388-1.742-6.723-1.247c-2.334,0.496-4.335,1.872-5.636,3.873
		c-4.293,6.611-2.407,15.483,4.204,19.776c11.571,7.513,27.098,4.214,34.611-7.357c3.688-5.679,5.876-12.034,6.476-18.589
		c-4.911-5.16-9.555-10.635-13.907-16.41c-6.45-8.56-11.596-17.821-15.375-27.543c-29.711-12.481-65.099-2.315-83.251,25.637
		c-27.292,42.026-22.38,95.829,8.53,132.182C417.689,502.552,421.375,503.1,425.064,503.952z"/>
	<path fill="#739191" d="M501.416,347.147c10.011,6.501,16.891,16.511,19.373,28.188c0.833,3.918,1.137,7.865,0.928,11.761
		c27.796,28.697,64.119,47.242,104.315,52.892c37.27,5.237,74.391-1.097,107.202-17.929c7.778-5.711,16.001-10.796,24.612-15.214
		c0.654-0.479,1.305-0.964,1.954-1.453c14.167-10.676,29.392-18.989,45.196-25.008c-2.779,0.127-5.559,0.191-8.334,0.191
		c-29.737,0.001-59.201-7.283-86.201-21.639c-35.667-18.964-63.513-48.405-80.291-84.38c-2.993,5.38-7.107,10.124-12.172,13.94
		c-12.594,9.491-30.563,6.966-40.055-5.63c-2.874-3.813-4.091-8.518-3.426-13.247c0.665-4.729,3.131-8.916,6.945-11.79
		c2.67-2.012,5.963-2.862,9.273-2.398c3.311,0.465,6.242,2.192,8.253,4.862c2.374,3.15,1.742,7.644-1.408,10.018l-2.155-2.86
		c1.573-1.185,1.888-3.429,0.703-5.002c-1.436-1.906-3.528-3.138-5.891-3.47c-2.363-0.334-4.714,0.276-6.62,1.712
		c-3.05,2.298-5.022,5.646-5.554,9.428c-0.531,3.782,0.442,7.543,2.74,10.593c4.022,5.337,9.882,8.789,16.5,9.719
		c6.616,0.929,13.203-0.773,18.54-4.794c5.407-4.075,9.637-9.298,12.443-15.253c-2.85-6.528-5.341-13.261-7.456-20.176
		c-3.135-10.255-4.803-20.722-5.027-31.156c-10.082-9.359-22.757-15.417-36.666-17.375c-17.972-2.528-35.846,2.09-50.333,13.007
		c-23.641,17.814-38.931,43.765-43.053,73.072c-2.605,18.521-0.553,36.985,5.807,54.032
		C494.93,343.29,498.225,345.074,501.416,347.147z"/>
	<path fill="#270FF9" d="M499.466,350.15c-1.941-1.26-3.921-2.408-5.936-3.445c3.491,8.135,7.988,15.904,13.452,23.156
		c3.539,4.696,7.274,9.189,11.193,13.473c-0.082-2.415-0.376-4.841-0.889-7.254C515.003,365.339,508.674,356.13,499.466,350.15z"/>
	<path fill="#775569" d="M407.384,680.97c-2.29,0.281-4.547,0.673-6.768,1.173c7.905,3.989,16.346,7.052,25.195,9.095
		c5.742,1.326,11.497,2.361,17.225,3.114c-1.612-1.794-3.394-3.458-5.334-4.975C429.05,682.618,418.285,679.63,407.384,680.97z"/>
	<path fill="#475D89" d="M450.877,849.805c-2.04,1.039-4.014,2.171-5.916,3.39c8.705,1.05,17.662,1.072,26.744-0.044
		c5.855-0.719,11.606-1.711,17.251-2.965c-2.128-1.134-4.372-2.089-6.714-2.85C471.8,843.942,460.661,844.819,450.877,849.805z"/>
	<path fill="#C96BF9" d="M546.873,991.14c11.278-12.096,27.752-16.519,42.815-13.04c65.792-44.613,94.435-127.637,70.96-202.972
		c-4.029-8.275-7.405-16.794-10.126-25.485c-0.464-0.952-0.938-1.901-1.42-2.848c-8.082-15.861-13.636-32.352-16.813-49.021
		c-9.515,72.924-62.388,134.5-134.564,153.946c4.787,3.885,8.75,8.766,11.633,14.424c7.16,14.051,1.553,31.309-12.5,38.469
		c-4.255,2.168-9.1,2.55-13.641,1.074c-4.542-1.477-8.237-4.632-10.405-8.888c-1.518-2.979-1.784-6.369-0.751-9.549
		c1.033-3.179,3.242-5.766,6.221-7.283c3.516-1.789,7.83-0.388,9.621,3.125l-3.191,1.627c-0.433-0.851-1.171-1.48-2.079-1.775
		s-1.875-0.219-2.725,0.215c-2.126,1.083-3.703,2.93-4.44,5.198c-0.738,2.27-0.547,4.69,0.536,6.817
		c1.734,3.402,4.688,5.927,8.32,7.106c3.632,1.182,7.506,0.874,10.908-0.859c5.955-3.034,10.372-8.205,12.437-14.562
		c2.065-6.355,1.531-13.136-1.502-19.09c-3.077-6.039-7.492-11.115-12.875-14.914c-6.887,1.672-13.948,2.965-21.15,3.85
		c-10.736,1.319-21.316,1.097-31.511-0.493c-10.99,8.306-19.173,19.749-23.522,33.125c-5.611,17.258-4.166,35.664,4.07,51.827
		c22.749,44.648,71.806,67.296,118.738,58.703C541.973,996.827,544.292,993.906,546.873,991.14z"/>
	<path fill="#BF3741" d="M449.251,846.613c10.636-5.418,22.746-6.37,34.098-2.684c3.802,1.235,7.367,2.942,10.631,5.065
		c77.065-19.433,132.357-87.644,136.064-166.453c-0.956-9.154-1.215-18.314-0.799-27.412c-0.111-1.053-0.23-2.107-0.36-3.162
		c-2.139-17.419-1.811-34.767,0.872-51.632c-31.526,60.56-94.813,99.129-163.321,99.131c-5.205,0-10.432-0.222-15.686-0.674
		c3.17,5.288,5.225,11.229,5.999,17.532c1.922,15.653-9.25,29.952-24.903,31.875c-9.789,1.198-18.721-5.782-19.923-15.566
		c-0.841-6.849,4.047-13.106,10.897-13.947c1.899-0.232,3.771,0.287,5.275,1.463c1.506,1.176,2.463,2.868,2.696,4.765l-3.555,0.437
		c-0.116-0.947-0.594-1.792-1.346-2.379c-0.752-0.587-1.69-0.846-2.634-0.73c-4.89,0.601-8.379,5.067-7.779,9.956
		c0.961,7.824,8.099,13.404,15.932,12.448c13.693-1.682,23.466-14.19,21.785-27.883c-0.826-6.727-3.238-13.006-6.998-18.417
		c-7.049-0.784-14.115-1.983-21.191-3.617c-10.54-2.433-20.405-6.261-29.442-11.241c-13.168,4.047-24.771,12.001-33.433,23.083
		c-11.176,14.298-16.113,32.088-13.902,50.093c6.106,49.729,44.452,87.785,91.487,95.772
		C442.711,850.271,445.896,848.323,449.251,846.613z"/>
	<path fill="#71F5C7" d="M804.276,697.33c4.874-5.439,10.338-10.482,16.387-15.04c1.895-1.428,3.836-2.746,5.822-3.957
		c-3.137,0.178-6.29,0.028-9.405-0.452c-0.878,0.018-1.768-0.155-2.613-0.482c-6.411-1.38-12.583-4.185-18.015-8.43
		c-2.214,5.886-2.141,12.294,0.229,18.16C798.321,691.191,800.936,694.676,804.276,697.33z"/>
	<path fill="#33EB51" d="M964.101,536.047c-3.862-2.054-8.104-3.037-12.354-2.933c-0.253,7.35-1.218,14.729-2.908,22.055
		c-0.528,2.285-1.161,4.529-1.896,6.725c0.226-0.212,0.454-0.422,0.686-0.63c2.167-1.951,4.487-3.667,6.931-5.138
		c0.592-0.476,1.261-0.857,1.988-1.128c5.955-3.179,12.56-4.957,19.399-5.188C973.86,543.878,969.686,539.017,964.101,536.047z"/>
	<path fill="#81A5DF" d="M860.408,558.42c0.313,1.265,1.311,2.314,2.665,2.627c4.8,1.108,9.606-1.896,10.714-6.695
		c0.859-3.721,0.219-7.554-1.805-10.792c-1.559-2.493-3.792-4.404-6.435-5.543C861.981,544.438,860.318,551.474,860.408,558.42z"/>
	<path fill="#0FEB13" d="M924.453,523.213c-4.343-0.611-8.666-0.088-12.633,1.478c2.273,6.94,3.908,14.194,4.831,21.71
		c0.286,2.329,0.458,4.653,0.519,6.969c0.141-0.277,0.283-0.553,0.43-0.828c1.373-2.582,2.972-4.996,4.772-7.219
		c0.385-0.634,0.876-1.217,1.467-1.72c4.509-5.024,10.106-8.954,16.455-11.51C936.303,527.233,930.718,524.094,924.453,523.213z"/>
	<path fill="#358345" d="M1001.624,591.712c2.412-2.234,4.71-4.563,6.883-6.965c-0.694-0.405-1.413-0.778-2.157-1.121
		C1005.533,586.68,1003.918,589.458,1001.624,591.712z"/>
	<path fill="#BBF3F1" d="M986.361,554.687c-2.75,6.82-6.181,13.424-10.275,19.729c-1.293,1.99-2.667,3.893-4.117,5.71
		c2.887-1.24,5.9-2.177,8.992-2.792c0.83-0.308,1.733-0.459,2.622-0.441c6.497-0.895,13.256-0.37,19.81,1.761
		c0.068-6.289-2.192-12.285-6.426-16.987C994.04,558.417,990.399,556.039,986.361,554.687z"/>
	<path fill="#1FB7F9" d="M958.005,558.283v0.001c-0.003,0-0.005,0.001-0.008,0.002c-0.452,0.245-0.9,0.499-1.344,0.762
		c-0.304,0.274-0.56,0.603-0.758,0.974c-0.447,0.842-0.54,1.809-0.262,2.721c0.698,2.283,2.242,4.157,4.35,5.277
		c2.106,1.121,4.524,1.354,6.807,0.655c6.692-2.046,10.799-8.587,10.023-15.305C970.172,553.477,963.755,555.167,958.005,558.283z"
		/>
	<path fill="#81436D" d="M867.44,534.94c2.934,1.366,5.438,3.505,7.27,6.245c-1.81-2.828-3.737-5.56-5.777-8.19
		C868.409,533.612,867.91,534.262,867.44,534.94z"/>
	<path fill="#ED11FB" d="M871.447,530.43c4.507,5.742,8.523,11.998,11.96,18.742c1.069,2.099,2.026,4.23,2.87,6.379
		c0.037-0.311,0.077-0.621,0.121-0.932c0.407-2.897,1.085-5.713,2.017-8.419c0.146-0.727,0.406-1.44,0.788-2.115
		c2.52-6.264,6.435-11.87,11.526-16.443C891.249,522.038,879.401,523.412,871.447,530.43z"/>
	<path fill="#4FA7A3" d="M906.517,527.568c2.23,2.229,3.827,5.009,4.633,8.113c-0.728-3.202-1.592-6.344-2.586-9.423
		C907.864,526.66,907.182,527.096,906.517,527.568z"/>
	<path fill="#0559B7" d="M688.858,475.18c-5.212,7.709-10.937,14.949-17.125,21.685c-8.963,13.343-16.239,28.057-21.458,43.905
		c4.718-8.534,10.146-16.752,16.267-24.586c30.277-38.752,73.832-63.395,122.642-69.388c53.846-6.611,103.697,25.531,121.466,74.506
		c4.499-1.748,9.393-2.324,14.301-1.635c7.565,1.063,14.265,5.009,18.862,11.111c0.014,0.017,0.026,0.035,0.039,0.052
		c0.047-0.015,0.093-0.029,0.14-0.043c1.399-0.428,2.815-0.747,4.237-0.957c0.115-20.729-5.62-41.11-16.869-59.117
		c-15.681-25.101-40.2-42.592-69.04-49.25C796.902,406.359,731.427,429.05,688.858,475.18z"/>
	<path fill="#AB01D5" d="M926.33,546.193L926.33,546.193c-0.001,0.002-0.003,0.003-0.005,0.005
		c-0.339,0.383-0.672,0.773-0.997,1.169c-0.631,1.188-0.562,2.685,0.3,3.829c2.965,3.935,8.577,4.723,12.512,1.758
		c5.589-4.212,7.212-11.763,4.186-17.81C936.12,537.515,930.667,541.298,926.33,546.193z"/>
	<path fill="#AB77BB" d="M989.843,680.507c-0.737,2.27-0.547,4.69,0.536,6.816c3.177,6.235,10.326,9.144,16.813,7.215
		c-1.398-7.215-4.649-13.676-9.188-18.941c-0.299-0.216-0.633-0.387-0.994-0.504c-0.363-0.118-0.736-0.177-1.107-0.177
		c-0.556,0-1.108,0.131-1.618,0.391C992.157,676.391,990.58,678.237,989.843,680.507z"/>
	<path fill="#79A197" d="M981.102,704.409c-0.649-0.966-1.753-1.583-2.964-1.583c-0.145,0-0.291,0.009-0.438,0.027
		c-2.368,0.291-4.481,1.487-5.951,3.367c-1.469,1.88-2.117,4.22-1.826,6.589c0.465,3.791,2.378,7.172,5.388,9.523
		c2.316,1.81,5.068,2.842,7.942,3.009C984.406,718.085,983.563,710.907,981.102,704.409z"/>
	<path fill="#8DB3EF" d="M1007.719,698.11c-7.971,2.125-16.638-1.521-20.531-9.161c-1.518-2.979-1.784-6.37-0.751-9.549
		s3.242-5.766,6.222-7.284c0.444-0.227,0.905-0.404,1.376-0.533c-8.515-7.511-20.075-11.489-32.207-10.002
		c-2.646,0.325-5.241,0.799-7.772,1.413c7.021,13.525,18.596,24.78,33.684,31.185c6.557,2.783,13.279,4.912,20.091,6.386
		C1007.832,699.75,1007.795,698.931,1007.719,698.11z"/>
	<path fill="#AD4BD5" d="M980.292,734.508c-6.236-3.893-12.141-8.416-17.638-13.542c-1.716-1.6-3.343-3.271-4.877-5.004
		c0.07,0.302,0.139,0.605,0.203,0.909c0.608,2.863,0.935,5.741,0.984,8.604c0.111,0.73,0.11,1.488-0.018,2.25
		c-0.224,6.749-1.985,13.358-5.207,19.398C964.563,749.146,975.214,743.812,980.292,734.508z"/>
	<path fill="#5333CB" d="M982.525,728.879c-3.231-0.281-6.324-1.44-8.987-3.397c2.675,2.044,5.427,3.957,8.25,5.736
		C982.069,730.458,982.315,729.678,982.525,728.879z"/>
	<path fill="#43156D" d="M998.777,627.003c-3.077-1.306-5.462-3.732-6.714-6.832c-1.253-3.099-1.223-6.501,0.083-9.578
		c0.195-0.46,0.435-0.893,0.713-1.294c-11.354-0.28-22.767,4.103-31.102,13.041c-1.811,1.942-3.496,3.972-5.051,6.077
		c14.075,5.85,30.177,7.032,45.854,2.239c6.811-2.083,13.329-4.773,19.494-8.022c-0.521-0.625-1.076-1.229-1.662-1.809
		C1015.653,627.574,1006.669,630.354,998.777,627.003z"/>
	<path fill="#339991" d="M1000.176,623.706c6.442,2.735,13.792,0.365,17.517-5.279c-5.706-4.626-12.351-7.487-19.209-8.604
		c-0.369,0.026-0.736,0.11-1.09,0.253c-0.885,0.357-1.577,1.038-1.95,1.916c-0.933,2.197-0.954,4.625-0.06,6.837
		C996.277,621.042,997.979,622.774,1000.176,623.706z"/>
	<path fill="#6D79A7" d="M1011.488,586.788c-4.872,5.436-10.336,10.478-16.382,15.034c-1.885,1.42-3.825,2.74-5.813,3.957
		c3.134-0.176,6.285-0.027,9.397,0.453c0.857,0.004,1.765,0.156,2.61,0.481c6.41,1.381,12.584,4.186,18.016,8.431
		C1023.19,604.834,1019.781,593.404,1011.488,586.788z"/>
	<path fill="#A509DB" d="M1022.778,666.335c-7.278,1.027-14.713,1.359-22.216,0.964c-2.357-0.124-4.69-0.359-6.995-0.706
		c2.517,1.88,4.833,4.021,6.91,6.39c0.678,0.563,1.25,1.252,1.687,2.043c4.024,5.179,6.95,11.295,8.383,18.041
		C1020.134,687.663,1024.869,676.728,1022.778,666.335z"/>
	<path fill="#5B6DBB" d="M1024.161,625.571c-6.491,3.457-13.364,6.311-20.554,8.509c-2.253,0.688-4.518,1.261-6.78,1.719
		c0.3,0.09,0.599,0.184,0.897,0.281c2.772,0.901,5.419,2.052,7.915,3.433c0.709,0.274,1.373,0.663,1.972,1.158
		c5.731,3.568,10.572,8.397,14.192,14.206c4.093-4.773,6.216-10.819,5.995-17.141
		C1027.646,633.364,1026.385,629.203,1024.161,625.571z"/>
	<path fill="#7901AD" d="M892.431,545.665L892.431,545.665c0,0.003-0.002,0.005-0.003,0.007c-0.188,0.475-0.366,0.955-0.536,1.438
		c-0.187,1.333,0.39,2.717,1.591,3.498c4.131,2.682,9.675,1.504,12.357-2.627c2.08-3.203,2.788-7.024,1.994-10.759
		c-0.61-2.876-2.056-5.436-4.15-7.411C898.663,534.161,894.833,539.581,892.431,545.665z"/>
	<path fill="#313B1B" d="M1151.703,510.146c-7.074-14.433-16.183-28.101-27.298-40.545c5.031,8.354,9.436,17.165,13.159,26.382
		c18.422,45.596,17.985,95.638-1.229,140.905c-11.939,28.126-34.116,49.918-62.446,61.36c-20.224,8.168-41.854,10.365-62.815,6.608
		c-0.739,4.758-2.684,9.275-5.73,13.174c-4.704,6.02-11.471,9.849-19.054,10.779c-0.021,0.002-0.042,0.005-0.063,0.008
		c-0.011,0.047-0.021,0.095-0.032,0.142c-0.331,1.434-0.766,2.819-1.294,4.146c17.896,10.467,38.43,15.686,59.634,14.951
		c29.579-1.029,56.986-13.518,77.173-35.166c45.79-49.104,58.877-117.158,40.205-177.093
		C1157.846,527.438,1154.44,518.865,1151.703,510.146z"/>
	<path fill="#00E503" d="M1091.536,434.255c-11.635-11.087-24.789-20.621-39.206-28.336c7.598,6.136,14.762,12.92,21.424,20.318
		c32.906,36.546,49.61,83.719,47.036,132.828c-1.599,30.514-14.985,58.576-37.693,79.018
		c-16.214,14.595-35.794,24.059-56.776,27.696c2.387,12.217-3.458,25.059-15.088,30.983c-0.019,0.01-0.038,0.019-0.058,0.029
		c0.007,0.048,0.013,0.097,0.019,0.145c0.179,1.453,0.246,2.903,0.206,4.339c20.397,3.714,41.46,1.604,61.148-6.348
		c27.442-11.083,48.926-32.192,60.49-59.438c18.842-44.387,19.27-93.455,1.206-138.164c-6.063-15.006-13.965-28.917-23.467-41.492
		C1103.751,449.085,1097.327,441.872,1091.536,434.255z"/>
	<path fill="#1D5F15" d="M1179.45,697.729c3.858-15.604,5.666-31.925,5.15-48.602c-1.516,9.633-3.805,19.212-6.877,28.667
		c-15.196,46.771-47.697,84.823-91.515,107.149c-16.579,8.448-34.286,12.451-51.731,12.452
		c-33.423,0.003-65.915-14.676-87.893-40.92c-3.629,3.18-8.029,5.396-12.879,6.427c-7.468,1.587-15.115,0.171-21.524-3.99
		c-0.018-0.012-0.036-0.023-0.054-0.035c-0.039,0.029-0.078,0.059-0.117,0.088c-1.175,0.886-2.398,1.667-3.656,2.345
		c6.981,19.521,19.342,36.71,36.072,49.785c23.321,18.225,52.342,26.273,81.722,22.667c66.641-8.183,120.41-51.902,144.632-109.817
		C1173.04,714.924,1175.941,706.17,1179.45,697.729z"/>
	<path fill="#81B5BF" d="M844.187,540.367c-3.717,2.322-6.693,5.501-8.728,9.252c6.203,3.855,12.118,8.361,17.656,13.526
		c1.735,1.618,3.37,3.301,4.908,5.045c-0.722-3.065-1.122-6.208-1.188-9.366c-0.153-0.849-0.153-1.739,0.021-2.631
		c0.247-6.552,1.938-13.12,5.174-19.205C855.854,535.832,849.553,537.014,844.187,540.367z"/>
	<path fill="#D713B1" d="M851.669,748.064c3.869,2.057,8.115,3.056,12.376,2.932c0.238-7.299,1.183-14.675,2.886-22.054
		c0.531-2.301,1.17-4.559,1.91-6.769c-2.286,2.15-4.797,4.061-7.489,5.694c-0.674,0.573-1.455,1.019-2.313,1.312
		c-5.798,3.062-12.329,4.881-19.218,5.121C841.907,740.232,846.082,745.094,851.669,748.064z"/>
	<path fill="#EF352F" d="M859.199,724.985c0.268-0.258,0.495-0.559,0.674-0.896c0.448-0.843,0.541-1.809,0.263-2.721
		c-1.176-3.844-4.724-6.323-8.549-6.323c-0.863,0-1.74,0.126-2.607,0.391c-3.651,1.117-6.65,3.588-8.443,6.96
		c-1.38,2.596-1.918,5.485-1.584,8.344C846.3,730.617,853.227,728.539,859.199,724.985z"/>
	<path fill="#E5430D" d="M820.317,379.036c-15.442,4.46-30.484,11.057-44.669,19.842c9.101-3.504,18.543-6.312,28.267-8.378
		c48.104-10.225,97.308-1.104,138.551,25.679c25.626,16.642,43.235,42.267,49.584,72.153c4.532,21.335,2.939,43.022-4.399,63.009
		c4.558,1.555,8.667,4.254,11.979,7.931c5.111,5.677,7.707,13.006,7.307,20.635c-0.001,0.021-0.002,0.043-0.003,0.065
		c0.044,0.019,0.09,0.038,0.134,0.057c1.347,0.571,2.627,1.235,3.836,1.979c32.667-38.631,35.568-96.163,3.873-138.224
		c-40.408-53.622-105.158-78.33-167.422-70.346C838.414,375.989,829.379,377.854,820.317,379.036z"/>
	<path fill="#532FE9" d="M1009.552,384.046c-14.773-6.479-30.448-10.961-46.695-13.29c9.239,3.167,18.289,7.091,27.08,11.766
		c43.421,23.087,75.252,61.702,89.629,108.73c8.935,29.22,5.953,60.169-8.395,87.144c-10.242,19.257-25.402,34.846-43.871,45.439
		c2.492,4.12,3.905,8.83,4.078,13.775c0.267,7.635-2.457,14.917-7.667,20.505c-0.015,0.016-0.029,0.031-0.044,0.047
		c0.022,0.043,0.044,0.086,0.066,0.13c0.668,1.312,1.226,2.652,1.675,4.008c20.438-3.485,39.51-12.672,55.292-26.879
		c21.997-19.801,34.965-46.985,36.514-76.543c2.524-48.154-13.855-94.409-46.121-130.244c-10.83-12.027-23.013-22.396-36.242-30.963
		C1025.944,393.733,1017.502,389.167,1009.552,384.046z"/>
	<path fill="#4DB34D" d="M735.135,425.108c-13.097,9.647-24.889,21.099-35.075,34.15c43.056-37.826,103.084-55.135,163.065-41.285
		c29.773,6.874,55.085,24.93,71.272,50.842c11.556,18.499,17.476,39.422,17.416,60.714c4.806-0.098,9.599,1.032,13.968,3.356
		c6.746,3.587,11.69,9.585,13.924,16.892c0.007,0.021,0.013,0.042,0.02,0.063c0.049,0.002,0.097,0.005,0.146,0.007
		c1.462,0.077,2.901,0.261,4.31,0.55c7.198-19.44,8.779-40.553,4.367-61.322c-6.15-28.951-23.208-53.772-48.032-69.893
		c-40.44-26.264-88.688-35.208-135.855-25.179c-15.831,3.365-30.902,8.73-44.936,15.905
		C751.86,415.654,743.638,420.729,735.135,425.108z"/>
	<path fill="#6721C5" d="M914.998,364.823c-16.229-1.028-32.626,0.165-48.813,3.614c57.281-1.303,114.403,24.028,151.45,73.191
		c32.655,43.334,29.737,102.576-3.797,142.454c9.699,7.821,13.484,21.427,8.381,33.451c-0.009,0.02-0.018,0.04-0.025,0.06
		c0.035,0.033,0.071,0.066,0.106,0.099c1.07,0.999,2.055,2.065,2.947,3.191c18.012-10.265,32.791-25.421,42.762-44.167
		c13.898-26.13,16.786-56.11,8.132-84.416c-14.098-46.113-45.31-83.977-87.886-106.615c-14.289-7.598-29.284-13.175-44.646-16.7
		C933.889,368.332,924.33,366.934,914.998,364.823z"/>
	<path fill="#CB1D51" d="M953.449,862.648c46.979,10.85,95.381,2.748,136.273-22.804c13.726-8.577,26.055-18.775,36.787-30.316
		c5.426-8.092,11.413-15.668,17.908-22.694c9.003-13.54,16.17-28.338,21.277-44.081c-27.523,50.271-78.011,87.062-139.111,94.563
		c-30.324,3.725-60.288-4.587-84.362-23.4c-17.188-13.433-29.909-31.073-37.134-51.105c-11.62,4.472-25.278,0.945-33.132-9.477
		c-0.014-0.017-0.026-0.035-0.039-0.052c-0.046,0.014-0.094,0.029-0.14,0.043c-1.399,0.428-2.815,0.747-4.237,0.957
		c-0.115,20.729,5.62,41.11,16.869,59.117C900.09,838.5,924.608,855.99,953.449,862.648z"/>
	<path fill="#75D73D" d="M808.051,585.997c1.5-0.402,3.038-0.605,4.583-0.605c1.681,0,3.368,0.24,5.021,0.723
		c-3.209-1.005-6.452-1.861-9.711-2.567C807.939,584.357,807.974,585.176,808.051,585.997z"/>
	<path fill="#BFE31B" d="M793.725,605.102c-1.354,4.168-1.591,8.518-0.738,12.698c7.229-1.034,14.657-1.385,22.22-0.988
		c2.343,0.123,4.662,0.356,6.952,0.699c-0.248-0.186-0.495-0.375-0.74-0.566c-2.298-1.795-4.392-3.783-6.265-5.935
		c-0.571-0.5-1.063-1.092-1.455-1.761c-4.166-5.313-7.063-11.508-8.479-18.204C799.742,594.13,795.68,599.085,793.725,605.102z"/>
	<path fill="#03FB3B" d="M834.667,579.701c0.727,1.082,2.017,1.726,3.402,1.558c4.889-0.6,8.379-5.066,7.778-9.956
		c-0.853-6.945-6.581-12.125-13.33-12.529C831.364,566.026,832.206,573.205,834.667,579.701z"/>
	<path fill="#176FC7" d="M847.933,712.011c1.214-0.371,2.443-0.548,3.652-0.548c5.359,0,10.329,3.472,11.975,8.857
		c0.146,0.478,0.242,0.963,0.286,1.45c8.876-7.082,14.804-17.778,15.443-29.982c0.14-2.664,0.125-5.312-0.039-7.935
		c-15.047,4.706-27.87,14.407-36.563,27.792c-1.907,2.937-3.655,5.927-5.25,8.97C839.595,716.621,843.259,713.44,847.933,712.011z"
		/>
	<path fill="#FDD1F7" d="M833.243,555.237c3.358,0.298,6.495,1.542,9.104,3.489c-2.724-2.083-5.516-4.018-8.375-5.812
		C833.693,553.671,833.45,554.446,833.243,555.237z"/>
	<path fill="#0153A3" d="M791.615,658.537c6.488-3.454,13.36-6.308,20.546-8.505c2.253-0.688,4.517-1.261,6.78-1.718
		c-0.3-0.091-0.598-0.184-0.896-0.281c-2.774-0.901-5.421-2.053-7.917-3.435c-0.707-0.274-1.37-0.662-1.967-1.155
		c-5.732-3.568-10.574-8.398-14.195-14.208C786.807,637.592,786.097,649.487,791.615,658.537z"/>
	<path fill="#975149" d="M814.132,692.413c-2.412,2.234-4.698,4.551-6.87,6.954c0.697,0.405,1.417,0.779,2.158,1.119
		C810.234,697.438,811.845,694.663,814.132,692.413z"/>
	<path fill="#11AB73" d="M955.374,727.348l-0.002,0c0.001-0.003,0.002-0.007,0.003-0.01c0.014-0.513,0.018-1.026,0.012-1.54
		c-0.086-0.401-0.242-0.788-0.466-1.146c-0.505-0.809-1.295-1.373-2.225-1.587c-0.674-0.155-1.348-0.23-2.011-0.23
		c-4.065,0-7.751,2.799-8.704,6.925c-1.574,6.819,2.037,13.646,8.242,16.333C953.452,740.288,955.198,733.886,955.374,727.348z"/>
	<path fill="#CDBBBD" d="M802.574,657.305c-3.03,1.274-5.98,2.674-8.844,4.188c0.514,0.618,1.061,1.215,1.644,1.791
		C797.184,660.696,799.65,658.638,802.574,657.305z"/>
</g>
</svg>
